#N canvas 426 27 995 701 10;
#X obj 586 45 r fromGUI;
#X obj 586 129 route 1 0;
#X obj 586 157 bng 15 250 50 0 empty empty empty 17 7 0 10 -262144
-1 -1;
#X obj 616 157 bng 15 250 50 0 empty empty empty 17 7 0 10 -262144
-1 -1;
#X obj 586 73 route list;
#X text -15 10 .anchor.;
#X text 885 663 .anchor.;
#X obj 586 101 route /btn.capture;
#N canvas 308 282 465 357 menu 0;
#X obj 23 117 s toGUI;
#X text 7 3 .anchor.;
#X text 369 307 .anchor.;
#X obj 23 165 r fromGUI;
#X obj 23 193 route list;
#X obj 23 221 route /menu.sel.action;
#X floatatom 23 277 5 0 0 3 s:sensor-sel - sensor-sel;
#X obj 120 294 s toGUI;
#X msg 120 266 list /lbl.sel.action \$1;
#X obj 23 249 unpack f s;
#X obj 23 35 loadbang;
#X msg 23 63 list /menu.sel.action tilt_1 tilt_2 shake(iOS) gyro_1
gyro_2 gyro_3 accel_1 accel_2 accel_3 motion_1 motion_2 motion_3 compass(android)
;
#X connect 3 0 4 0;
#X connect 4 0 5 0;
#X connect 5 0 9 0;
#X connect 8 0 7 0;
#X connect 9 0 6 0;
#X connect 9 1 8 0;
#X connect 10 0 11 0;
#X connect 11 0 0 0;
#X restore -8 40 pd menu;
#N canvas 5 234 1262 473 sensor 0;
#X obj 28 39 r fromSystem;
#X obj 28 67 route list;
#X obj 28 344 spigot;
#X obj 67 290 == 0;
#X obj 28 152 unpack f f;
#X obj 298 152 unpack f f f;
#X obj 568 152 unpack f f f;
#X obj 838 152 unpack f f f;
#X obj 298 212 / 3.14159;
#X obj 388 212 / 3.14159;
#X obj 478 212 / 3.14159;
#X obj 838 212 / 3.14159;
#X obj 928 212 / 3.14159;
#X obj 1018 212 / 3.14159;
#X obj 1108 112 / 360;
#X obj 67 318 tgl 15 0 empty empty empty 17 7 0 10 -262144 -1 -1 0
1;
#X floatatom 67 265 5 0 0 2 r:sensor-sel sensor-sel -;
#X text 7 5 .anchor.;
#X text 1187 440 .anchor.;
#X obj 118 344 spigot;
#X obj 157 318 tgl 15 0 empty empty empty 17 7 0 10 -262144 -1 -1 0
1;
#X floatatom 157 265 5 0 0 2 r:sensor-sel sensor-sel -;
#X obj 208 344 spigot;
#X obj 247 318 tgl 15 0 empty empty empty 17 7 0 10 -262144 -1 -1 0
1;
#X floatatom 247 265 5 0 0 2 r:sensor-sel sensor-sel -;
#X obj 298 344 spigot;
#X obj 337 318 tgl 15 0 empty empty empty 17 7 0 10 -262144 -1 -1 0
1;
#X floatatom 337 265 5 0 0 2 r:sensor-sel sensor-sel -;
#X obj 388 344 spigot;
#X obj 427 318 tgl 15 0 empty empty empty 17 7 0 10 -262144 -1 -1 0
1;
#X floatatom 427 265 5 0 0 2 r:sensor-sel sensor-sel -;
#X obj 478 344 spigot;
#X obj 517 318 tgl 15 0 empty empty empty 17 7 0 10 -262144 -1 -1 0
1;
#X floatatom 517 265 5 0 0 2 r:sensor-sel sensor-sel -;
#X obj 568 344 spigot;
#X obj 607 318 tgl 15 0 empty empty empty 17 7 0 10 -262144 -1 -1 0
1;
#X floatatom 607 265 5 0 0 2 r:sensor-sel sensor-sel -;
#X obj 658 344 spigot;
#X obj 697 318 tgl 15 0 empty empty empty 17 7 0 10 -262144 -1 -1 0
1;
#X floatatom 697 265 5 0 0 2 r:sensor-sel sensor-sel -;
#X obj 748 344 spigot;
#X obj 787 318 tgl 15 0 empty empty empty 17 7 0 10 -262144 -1 -1 0
1;
#X floatatom 787 265 5 0 0 2 r:sensor-sel sensor-sel -;
#X obj 838 344 spigot;
#X obj 877 318 tgl 15 0 empty empty empty 17 7 0 10 -262144 -1 -1 0
1;
#X floatatom 877 265 5 0 0 2 r:sensor-sel sensor-sel -;
#X obj 928 344 spigot;
#X obj 967 318 tgl 15 0 empty empty empty 17 7 0 10 -262144 -1 -1 0
1;
#X floatatom 967 265 5 0 0 2 r:sensor-sel sensor-sel -;
#X obj 1018 344 spigot;
#X obj 1057 318 tgl 15 0 empty empty empty 17 7 0 10 -262144 -1 -1
0 1;
#X floatatom 1057 265 5 0 0 2 r:sensor-sel sensor-sel -;
#X obj 1108 344 spigot;
#X obj 1147 318 tgl 15 0 empty empty empty 17 7 0 10 -262144 -1 -1
0 1;
#X floatatom 1147 265 5 0 0 2 r:sensor-sel sensor-sel -;
#X obj 157 290 == 1;
#X obj 247 290 == 2;
#X obj 337 290 == 3;
#X obj 427 290 == 4;
#X obj 517 290 == 5;
#X obj 607 290 == 6;
#X obj 697 290 == 7;
#X obj 787 290 == 8;
#X obj 877 290 == 9;
#X obj 967 290 == 10;
#X obj 1057 290 == 11;
#X obj 1147 290 == 12;
#X obj 568 417 outlet;
#X obj 28 95 route /tilts /shake /gyro /accel /motion /compass;
#X connect 0 0 1 0;
#X connect 1 0 68 0;
#X connect 2 0 67 0;
#X connect 3 0 15 0;
#X connect 4 0 2 0;
#X connect 4 1 19 0;
#X connect 5 0 8 0;
#X connect 5 1 9 0;
#X connect 5 2 10 0;
#X connect 6 0 34 0;
#X connect 6 1 37 0;
#X connect 6 2 40 0;
#X connect 7 0 11 0;
#X connect 7 1 12 0;
#X connect 7 2 13 0;
#X connect 8 0 25 0;
#X connect 9 0 28 0;
#X connect 10 0 31 0;
#X connect 11 0 43 0;
#X connect 12 0 46 0;
#X connect 13 0 49 0;
#X connect 14 0 52 0;
#X connect 15 0 2 1;
#X connect 16 0 3 0;
#X connect 19 0 67 0;
#X connect 20 0 19 1;
#X connect 21 0 55 0;
#X connect 22 0 67 0;
#X connect 23 0 22 1;
#X connect 24 0 56 0;
#X connect 25 0 67 0;
#X connect 26 0 25 1;
#X connect 27 0 57 0;
#X connect 28 0 67 0;
#X connect 29 0 28 1;
#X connect 30 0 58 0;
#X connect 31 0 67 0;
#X connect 32 0 31 1;
#X connect 33 0 59 0;
#X connect 34 0 67 0;
#X connect 35 0 34 1;
#X connect 36 0 60 0;
#X connect 37 0 67 0;
#X connect 38 0 37 1;
#X connect 39 0 61 0;
#X connect 40 0 67 0;
#X connect 41 0 40 1;
#X connect 42 0 62 0;
#X connect 43 0 67 0;
#X connect 44 0 43 1;
#X connect 45 0 63 0;
#X connect 46 0 67 0;
#X connect 47 0 46 1;
#X connect 48 0 64 0;
#X connect 49 0 67 0;
#X connect 50 0 49 1;
#X connect 51 0 65 0;
#X connect 52 0 67 0;
#X connect 53 0 52 1;
#X connect 54 0 66 0;
#X connect 55 0 20 0;
#X connect 56 0 23 0;
#X connect 57 0 26 0;
#X connect 58 0 29 0;
#X connect 59 0 32 0;
#X connect 60 0 35 0;
#X connect 61 0 38 0;
#X connect 62 0 41 0;
#X connect 63 0 44 0;
#X connect 64 0 47 0;
#X connect 65 0 50 0;
#X connect 66 0 53 0;
#X connect 68 0 4 0;
#X connect 68 1 22 0;
#X connect 68 2 5 0;
#X connect 68 3 6 0;
#X connect 68 4 7 0;
#X connect 68 5 14 0;
#X restore -8 88 pd sensor;
#X obj 720 40 table /tbl.action.captured 8820;
#X obj 720 70 table /tbl.action.avg 1;
#X obj 24 334 send toGUI;
#X msg 24 306 list /tbl.action.monitor refresh;
#X obj 705 218 s toSystem;
#X msg 705 190 list /getAccelFrequency;
#X obj 705 246 r fromSystem;
#X obj 705 274 route list;
#X obj 705 302 route /accelFrequency;
#X obj 705 330 print afreq;
#X obj 705 162 loadbang;
#X obj -8 169 tabwrite /tbl.action.monitor;
#X obj 24 197 f;
#X obj 60 197 + 1;
#X floatatom 24 253 5 0 0 0 - - -;
#X obj -8 141 t a b;
#X obj 24 278 == 0;
#X floatatom 252 116 5 0 0 2 r:sensor-sel sensor-sel -;
#X obj 252 141 bng 15 250 50 0 empty empty empty 17 7 0 10 -262144
-1 -1;
#X msg 252 180 0;
#X obj 34 141 table /tbl.action.monitor 441;
#X msg 297 156 \; /tbl.action.monitor resize 1 \; /tbl.action.monitor
0 0 \; /tbl.action.monitor resize 441;
#X obj 24 225 % 441;
#X text -7 64 - - - - - - - - - - - - - -;
#N canvas 0 50 491 465 range 0;
#X obj 28 33 r fromGUI;
#X obj 28 61 route list;
#X obj 28 89 route /lcd.action.range;
#X obj 28 117 route 1 2 0;
#X text 122 117 touch : down / drag / up;
#X obj 28 145 unpack f f;
#X obj 52 173 unpack f f;
#X obj 77 201 unpack f f;
#X floatatom 225 199 5 0 0 2 range-from - -;
#X floatatom 225 255 5 0 0 2 range-to - -;
#X obj 42 364 pack f f;
#X msg 42 392 list /lcd.action.range paintrect 0 \$1 1 \$2;
#X obj 42 420 s toGUI;
#X msg 28 336 list /lcd.action.range clear;
#X obj 42 309 t a b;
#X obj 161 162 - 0.5;
#X obj 161 218 - 0.5;
#X obj 319 213 -;
#X obj 319 241 abs;
#X floatatom 329 269 5 0 0 1 s:range-amount - range-amount;
#X obj 274 297 min;
#X floatatom 329 314 5 0 0 1 s:range-start - range-start;
#X obj 225 280 t a a;
#X obj 319 339 +;
#X floatatom 329 366 5 0 0 1 s:range-end - range-end;
#X text 8 5 .anchor.;
#X text 415 433 .anchor.;
#X obj 161 182 * -2;
#X obj 161 238 * -2;
#X connect 0 0 1 0;
#X connect 1 0 2 0;
#X connect 2 0 3 0;
#X connect 3 0 5 0;
#X connect 3 0 13 0;
#X connect 3 1 6 0;
#X connect 3 2 7 0;
#X connect 5 1 10 1;
#X connect 5 1 15 0;
#X connect 6 1 14 0;
#X connect 7 1 14 0;
#X connect 7 1 16 0;
#X connect 8 0 17 1;
#X connect 8 0 20 1;
#X connect 9 0 22 0;
#X connect 10 0 11 0;
#X connect 11 0 12 0;
#X connect 13 0 12 0;
#X connect 14 0 10 0;
#X connect 14 1 13 0;
#X connect 15 0 27 0;
#X connect 16 0 28 0;
#X connect 17 0 18 0;
#X connect 18 0 19 0;
#X connect 18 0 23 0;
#X connect 20 0 21 0;
#X connect 20 0 23 1;
#X connect 22 0 17 0;
#X connect 22 1 20 0;
#X connect 23 0 24 0;
#X connect 27 0 8 0;
#X connect 28 0 9 0;
#X restore -8 377 pd range;
#X text -7 354 - - - - - - - - - - - - - -;
#X floatatom 790 412 5 0 0 1 r:range-start range-start -;
#X floatatom 818 459 5 0 0 1 r:range-end range-end -;
#X obj -8 431 r fromGUI;
#X obj -8 459 route list;
#X obj 720 625 soundshot;
#X obj -8 540 filepick rec_%s.wav;
#X floatatom -8 515 5 0 0 0 - - -;
#X obj 73 568 route 1 0;
#X obj 740 592 bng 15 250 50 0 empty empty empty 17 7 0 10 -262144
-1 -1;
#X obj 155 540 / 5;
#X floatatom 855 539 5 0 0 0 vol - -;
#X text -7 404 - - - - - - - - - - - - - -;
#X text 313 224 - - - - - - - - - - - - - -;
#X floatatom 2 116 5 0 0 1 s:sensor - sensor;
#X floatatom 740 386 5 0 0 1 r:sensor sensor -;
#X obj 772 437 max;
#X obj 772 473 min;
#X obj 740 405 t a a;
#X obj 740 500 ==;
#X obj 740 528 change;
#X obj 740 556 sel 1;
#X obj 720 651 spigot;
#X obj 813 636 tgl 15 0 empty empty empty 17 7 0 10 -262144 -1 -1 0
1;
#X msg 813 597 1;
#X msg 813 573 0;
#X obj 772 603 bng 15 250 50 0 empty empty empty 17 7 0 10 -262144
-1 -1;
#X obj 694 654 bng 15 250 50 0 empty empty empty 17 7 0 10 -262144
-1 -1;
#X obj -8 665 soundshot;
#X obj 12 632 bng 15 250 50 0 empty empty empty 17 7 0 10 -262144 -1
-1;
#X floatatom 155 651 5 0 0 0 vol - -;
#X obj 48 643 bng 15 250 50 0 empty empty empty 17 7 0 10 -262144 -1
-1;
#X floatatom 385 295 5 0 0 1 r:range-start range-start -;
#X floatatom 413 342 5 0 0 1 r:range-end range-end -;
#X floatatom 335 269 5 0 0 1 r:sensor sensor -;
#X obj 367 320 max;
#X obj 367 356 min;
#X obj 335 288 t a a;
#X obj 335 383 ==;
#X obj 335 411 change;
#X obj 335 467 sel 1;
#N canvas 0 50 324 214 initGUI 0;
#X obj 24 43 loadbang;
#X msg 24 71 1;
#X obj 24 99 * 5;
#X obj 24 155 s toGUI;
#X msg 24 127 list /slid.vol \$1;
#X obj 164 43 loadbang;
#X msg 164 71 1;
#X obj 164 99 * 5;
#X obj 164 155 s toGUI;
#X msg 164 127 list /slid.spd \$1;
#X text 8 10 .anchor.;
#X text 251 181 .anchor.;
#X connect 0 0 1 0;
#X connect 1 0 2 0;
#X connect 2 0 4 0;
#X connect 4 0 3 0;
#X connect 5 0 6 0;
#X connect 6 0 7 0;
#X connect 7 0 9 0;
#X connect 9 0 8 0;
#X restore 86 40 pd initGUI;
#X text 792 503 **looping (example);
#X obj -8 488 route /knob.sndno /btn.play /slid.vol /slid.spd;
#X obj 550 283 r fromGUI;
#X obj 550 311 route list;
#X obj 550 340 route /tgl.test;
#X obj 335 439 spigot;
#X obj 416 424 tgl 15 0 empty empty empty 17 7 0 10 -262144 -1 -1 0
1;
#X connect 0 0 4 0;
#X connect 1 0 2 0;
#X connect 1 1 3 0;
#X connect 4 0 7 0;
#X connect 7 0 1 0;
#X connect 9 0 49 0;
#X connect 9 0 25 0;
#X connect 13 0 12 0;
#X connect 15 0 14 0;
#X connect 16 0 17 0;
#X connect 17 0 18 0;
#X connect 18 0 19 0;
#X connect 20 0 15 0;
#X connect 22 0 23 0;
#X connect 22 0 32 0;
#X connect 23 0 22 1;
#X connect 24 0 21 1;
#X connect 24 0 26 0;
#X connect 25 0 21 0;
#X connect 25 1 22 0;
#X connect 26 0 13 0;
#X connect 27 0 28 0;
#X connect 28 0 31 0;
#X connect 28 0 29 0;
#X connect 29 0 22 0;
#X connect 32 0 24 0;
#X connect 36 0 51 1;
#X connect 37 0 52 1;
#X connect 38 0 39 0;
#X connect 39 0 78 0;
#X connect 40 0 57 0;
#X connect 40 0 62 0;
#X connect 41 0 63 0;
#X connect 42 0 41 0;
#X connect 43 0 64 0;
#X connect 44 0 40 1;
#X connect 45 0 65 0;
#X connect 46 0 40 3;
#X connect 50 0 53 0;
#X connect 51 0 52 0;
#X connect 52 0 54 1;
#X connect 53 0 54 0;
#X connect 53 1 51 0;
#X connect 54 0 55 0;
#X connect 55 0 56 0;
#X connect 56 0 44 0;
#X connect 56 0 59 0;
#X connect 56 1 60 0;
#X connect 56 1 61 0;
#X connect 57 0 44 0;
#X connect 58 0 57 1;
#X connect 59 0 58 0;
#X connect 60 0 58 0;
#X connect 61 0 40 2;
#X connect 64 0 63 1;
#X connect 65 0 63 3;
#X connect 66 0 63 2;
#X connect 67 0 70 1;
#X connect 68 0 71 1;
#X connect 69 0 72 0;
#X connect 70 0 71 0;
#X connect 71 0 73 1;
#X connect 72 0 73 0;
#X connect 72 1 70 0;
#X connect 73 0 74 0;
#X connect 74 0 82 0;
#X connect 75 0 64 0;
#X connect 75 1 66 0;
#X connect 78 0 42 0;
#X connect 78 1 43 0;
#X connect 78 2 45 0;
#X connect 79 0 80 0;
#X connect 80 0 81 0;
#X connect 81 0 83 0;
#X connect 82 0 75 0;
#X connect 83 0 82 1;
