#N canvas 39 36 837 631 10;
#X obj 28 39 r fromSystem;
#X obj 28 67 route list;
#X obj 28 275 spigot;
#X obj 67 221 == 0;
#X obj 28 123 unpack f f;
#X obj 358 123 unpack f f f;
#X obj 358 153 / 3.14159;
#X obj 468 153 / 3.14159;
#X obj 578 153 / 3.14159;
#X obj 67 249 tgl 15 0 empty empty empty 17 7 0 10 -262144 -1 -1 0
1;
#X floatatom 67 196 5 0 0 2 r:0-sensor-sel #0-sensor-sel -, f 5;
#X text 7 5 .anchor.;
#X text 767 599 .anchor.;
#X obj 138 275 spigot;
#X obj 177 249 tgl 15 0 empty empty empty 17 7 0 10 -262144 -1 -1 0
1;
#X floatatom 177 196 5 0 0 2 r:0-sensor-sel #0-sensor-sel -, f 5;
#X obj 248 275 spigot;
#X obj 287 249 tgl 15 0 empty empty empty 17 7 0 10 -262144 -1 -1 0
1;
#X floatatom 287 196 5 0 0 2 r:0-sensor-sel #0-sensor-sel -, f 5;
#X obj 358 275 spigot;
#X obj 397 249 tgl 15 0 empty empty empty 17 7 0 10 -262144 -1 -1 0
1;
#X floatatom 397 196 5 0 0 2 r:0-sensor-sel #0-sensor-sel -, f 5;
#X obj 468 275 spigot;
#X obj 507 249 tgl 15 0 empty empty empty 17 7 0 10 -262144 -1 -1 0
1;
#X floatatom 507 196 5 0 0 2 r:0-sensor-sel #0-sensor-sel -, f 5;
#X obj 578 275 spigot;
#X obj 617 249 tgl 15 0 empty empty empty 17 7 0 10 -262144 -1 -1 0
1;
#X floatatom 617 196 5 0 0 2 r:0-sensor-sel #0-sensor-sel -, f 5;
#X obj 177 221 == 1;
#X obj 287 221 == 2;
#X obj 397 221 == 3;
#X obj 507 221 == 4;
#X obj 617 221 == 5;
#X obj 358 342 outlet;
#X obj 28 320 r fromSystem;
#X obj 28 348 route list;
#X obj 28 404 unpack f f f;
#X obj 358 404 unpack f f f;
#X obj 358 432 / 3.14159;
#X obj 468 432 / 3.14159;
#X obj 578 432 / 3.14159;
#X obj 688 404 / 360;
#X obj 28 554 spigot;
#X obj 67 528 tgl 15 0 empty empty empty 17 7 0 10 -262144 -1 -1 0
1;
#X floatatom 67 475 5 0 0 2 r:0-sensor-sel #0-sensor-sel -, f 5;
#X obj 138 554 spigot;
#X obj 177 528 tgl 15 0 empty empty empty 17 7 0 10 -262144 -1 -1 0
1;
#X floatatom 177 475 5 0 0 2 r:0-sensor-sel #0-sensor-sel -, f 5;
#X obj 248 554 spigot;
#X obj 287 528 tgl 15 0 empty empty empty 17 7 0 10 -262144 -1 -1 0
1;
#X floatatom 287 475 5 0 0 2 r:0-sensor-sel #0-sensor-sel -, f 5;
#X obj 358 554 spigot;
#X obj 397 528 tgl 15 0 empty empty empty 17 7 0 10 -262144 -1 -1 0
1;
#X floatatom 397 475 5 0 0 2 r:0-sensor-sel #0-sensor-sel -, f 5;
#X obj 468 554 spigot;
#X obj 507 528 tgl 15 0 empty empty empty 17 7 0 10 -262144 -1 -1 0
1;
#X floatatom 507 475 5 0 0 2 r:0-sensor-sel #0-sensor-sel -, f 5;
#X obj 578 554 spigot;
#X obj 617 528 tgl 15 0 empty empty empty 17 7 0 10 -262144 -1 -1 0
1;
#X floatatom 617 475 5 0 0 2 r:0-sensor-sel #0-sensor-sel -, f 5;
#X obj 688 554 spigot;
#X obj 727 528 tgl 15 0 empty empty empty 17 7 0 10 -262144 -1 -1 0
1;
#X floatatom 727 475 5 0 0 2 r:0-sensor-sel #0-sensor-sel -, f 5;
#X obj 67 500 == 6;
#X obj 177 500 == 7;
#X obj 287 500 == 8;
#X obj 397 500 == 9;
#X obj 507 500 == 10;
#X obj 617 500 == 11;
#X obj 727 500 == 12;
#X obj 28 95 route /tilts /shake /gyro;
#X obj 28 376 route /accel /motion /compass;
#X floatatom 205 77 5 0 0 2 s:0-sensor-sel - #0-sensor-sel, f 5;
#X obj 205 39 inlet;
#X connect 0 0 1 0;
#X connect 1 0 70 0;
#X connect 2 0 33 0;
#X connect 3 0 9 0;
#X connect 4 0 2 0;
#X connect 4 1 13 0;
#X connect 5 0 6 0;
#X connect 5 1 7 0;
#X connect 5 2 8 0;
#X connect 6 0 19 0;
#X connect 7 0 22 0;
#X connect 8 0 25 0;
#X connect 9 0 2 1;
#X connect 10 0 3 0;
#X connect 13 0 33 0;
#X connect 14 0 13 1;
#X connect 15 0 28 0;
#X connect 16 0 33 0;
#X connect 17 0 16 1;
#X connect 18 0 29 0;
#X connect 19 0 33 0;
#X connect 20 0 19 1;
#X connect 21 0 30 0;
#X connect 22 0 33 0;
#X connect 23 0 22 1;
#X connect 24 0 31 0;
#X connect 25 0 33 0;
#X connect 26 0 25 1;
#X connect 27 0 32 0;
#X connect 28 0 14 0;
#X connect 29 0 17 0;
#X connect 30 0 20 0;
#X connect 31 0 23 0;
#X connect 32 0 26 0;
#X connect 34 0 35 0;
#X connect 35 0 71 0;
#X connect 36 0 42 0;
#X connect 36 1 45 0;
#X connect 36 2 48 0;
#X connect 37 0 38 0;
#X connect 37 1 39 0;
#X connect 37 2 40 0;
#X connect 38 0 51 0;
#X connect 39 0 54 0;
#X connect 40 0 57 0;
#X connect 41 0 60 0;
#X connect 42 0 33 0;
#X connect 43 0 42 1;
#X connect 44 0 63 0;
#X connect 45 0 33 0;
#X connect 46 0 45 1;
#X connect 47 0 64 0;
#X connect 48 0 33 0;
#X connect 49 0 48 1;
#X connect 50 0 65 0;
#X connect 51 0 33 0;
#X connect 52 0 51 1;
#X connect 53 0 66 0;
#X connect 54 0 33 0;
#X connect 55 0 54 1;
#X connect 56 0 67 0;
#X connect 57 0 33 0;
#X connect 58 0 57 1;
#X connect 59 0 68 0;
#X connect 60 0 33 0;
#X connect 61 0 60 1;
#X connect 62 0 69 0;
#X connect 63 0 43 0;
#X connect 64 0 46 0;
#X connect 65 0 49 0;
#X connect 66 0 52 0;
#X connect 67 0 55 0;
#X connect 68 0 58 0;
#X connect 69 0 61 0;
#X connect 70 0 4 0;
#X connect 70 1 16 0;
#X connect 70 2 5 0;
#X connect 71 0 36 0;
#X connect 71 1 37 0;
#X connect 71 2 41 0;
#X connect 73 0 72 0;
