#N canvas 190 22 502 468 10;
#X obj 171 37 loadbang;
#X text -4 6 .anchor.;
#X obj 11 118 filepick rec_%s.wav;
#X floatatom 11 93 5 0 0 0 - - -, f 5;
#X floatatom 281 175 5 0 0 1 range-start - -, f 5;
#X floatatom 371 211 5 0 0 1 range-end - -, f 5;
#X obj 203 189 max;
#X obj 203 225 min;
#X obj 171 157 t a a;
#X obj 171 252 ==;
#X obj 171 280 change;
#X obj 11 37 loadbang;
#X obj 11 65 f \$1;
#X obj 171 65 f \$3;
#X obj 62 297 loadbang;
#X obj 62 325 f \$2;
#X obj 281 37 loadbang;
#X obj 371 37 loadbang;
#X obj 281 65 f \$4;
#X obj 371 65 f \$5;
#X text 429 439 .anchor.;
#X obj 11 421 soundloop;
#X obj 36 386 *;
#X obj 171 118 action-map-sensor-sel;
#X obj 31 209 action-map-sensor-sel;
#X msg 31 181 9;
#X obj 31 153 loadbang;
#X text 63 181 roll;
#X connect 0 0 13 0;
#X connect 2 0 21 0;
#X connect 3 0 2 0;
#X connect 4 0 6 1;
#X connect 5 0 7 1;
#X connect 6 0 7 0;
#X connect 7 0 9 1;
#X connect 8 0 9 0;
#X connect 8 1 6 0;
#X connect 9 0 10 0;
#X connect 10 0 22 1;
#X connect 10 0 21 1;
#X connect 11 0 12 0;
#X connect 12 0 3 0;
#X connect 13 0 23 0;
#X connect 14 0 15 0;
#X connect 15 0 21 2;
#X connect 16 0 18 0;
#X connect 17 0 19 0;
#X connect 18 0 4 0;
#X connect 19 0 5 0;
#X connect 23 0 8 0;
#X connect 25 0 24 0;
#X connect 26 0 25 0;
