#N canvas 21 22 1059 706 10;
#X text 8 6 .anchor.;
#X text 986 672 .anchor.;
#X text 633 10 designed by D. Yi @ 2014 fall;
#X obj 32 663 send toGUI;
#X obj 49 463 soundpick;
#X obj 32 55 receive fromGUI;
#X obj 32 77 route list;
#X obj 32 121 route 1 0;
#X obj 32 149 bng 15 250 50 0 empty empty pressed 17 7 0 10 -262144
-1 -1;
#X floatatom 32 439 5 0 0 2 sound_select - -, f 5;
#X obj 57 169 bng 15 250 50 0 empty empty released 17 7 0 10 -262144
-1 -1;
#X text 45 31 push-button;
#X floatatom 100 379 5 0 0 2 volume - -, f 5;
#X floatatom 74 409 5 0 0 2 playback_speed - -, f 5;
#X obj 367 55 receive fromSystem;
#X obj 367 77 list trim;
#X text 378 32 action-data;
#X floatatom 740 198 5 0 0 2 roll - -, f 5;
#X floatatom 774 198 5 0 0 2 pitch - -, f 5;
#X obj 367 99 route /compass /tilts /accel /gyro /motion /shake;
#X obj 740 663 send toGUI;
#X text 65 580 display sth. on GUI;
#X obj 740 161 unpack f f f;
#X text 844 5 [receive fromSystem] \; /shake (int) - a shake gesture
occured (value is always 1) \; /tilts (float) (float) - "cooked" XY
tilt values -1 to 1 \; /accel (float) (float) (float) - raw accelerometer
data \, x \, y \, z \, range -1 to 1 \; /gyro (float) (float) (float)
- gyro data \, in radians per second \, around roll \, pitch \, yaw
\, range -pi to +pi \; /motion (float) (float) (float) - device attitude
in space \, at roll \, pitch \, yaw \, range -pi to pi \; /compass
(float) - compass value \, in degrees \; /page (int) - sent whenever
user scrolls to new page, f 109;
#X text 754 123 /gyro (float) (float) (float) - gyro data \, in radians
per second \, around roll \, pitch \, yaw \, range -pi to +pi \;;
#X floatatom 809 198 5 0 0 2 yaw - -, f 5;
#X text 843 188 -pi ~ +pi;
#X obj 514 157 unpack f f f;
#X floatatom 548 184 5 0 0 0 Y - -, f 5;
#X obj 558 203 + 1;
#X obj 558 225 / 2;
#X obj 740 309 abs;
#X obj 774 309 abs;
#X obj 809 309 abs;
#X obj 740 365 +;
#X obj 774 337 +;
#X obj 740 223 / 3.14159;
#X obj 774 251 / 3.14159;
#X obj 809 279 / 3.14159;
#X obj 740 393 / 3;
#X msg 740 635 list /gyro.dist set \$1;
#X text 747 450 0 ~ +1;
#X text 884 285 ==;
#X obj 32 99 route /open.next.1 /open.next.2;
#X obj 123 121 route 1 0;
#X obj 123 149 bng 15 250 50 0 empty empty pressed 17 7 0 10 -262144
-1 -1;
#X obj 148 169 bng 15 250 50 0 empty empty released 17 7 0 10 -262144
-1 -1;
#X obj 140 553 soundpick;
#X floatatom 123 529 5 0 0 2 sound_select - -, f 5;
#X floatatom 191 469 5 0 0 2 volume - -, f 5;
#X floatatom 165 499 5 0 0 2 playback_speed - -, f 5;
#X msg 32 635 list /file.num.1 \$1;
#X msg 123 607 list /file.num.2 \$1;
#X msg 42 206 3;
#X msg 133 206 4;
#X obj 65 247 + 1;
#X floatatom 32 276 5 0 0 0 - - -, f 5;
#X obj 32 301 % 10;
#X obj 32 247 f 0;
#X obj 156 247 + 1;
#X floatatom 123 276 5 0 0 0 - - -, f 5;
#X obj 123 301 % 10;
#X obj 123 247 f 0;
#X obj 191 337 loadbang;
#X msg 191 362 1;
#X text 171 206 <-- you can also fix these;
#X obj 912 259 expr (abs($f1/3.141592)+abs($f2/3.141592)+abs($f3/3.141592))/3
, f 18;
#X floatatom 740 421 5 0 0 1 gyro.dist - -, f 5;
#X text 860 400 0 ~ +1;
#X obj 418 392 > 0.5;
#X msg 418 635 list /event.1 set \$1;
#X text 283 413 0 or 1;
#X text 927 400 0 or 1;
#X text 583 183 -1 ~ +1;
#X obj 367 180 / 360;
#X floatatom 367 154 5 0 0 1 degree - -, f 5;
#X msg 376 203 list /compass set \$1;
#X msg 558 247 list /accel.y set \$1;
#X text 399 253 0 ~ +1;
#X obj 418 663 send toGUI;
#X msg 548 607 list /event.2 set \$1;
#X obj 558 269 send toGUI;
#X obj 376 225 send toGUI;
#X text 556 340 -1 ~ +1;
#X obj 548 482 < -0.5;
#X text 283 503 0 or 1;
#X text 222 363 initial spd. & vol.;
#X text 445 580 display sth. on GUI;
#X text 755 580 display sth. on GUI;
#X obj 274 337 soundpick;
#X floatatom 257 313 5 0 0 2 sound_select - -, f 5;
#X floatatom 325 253 5 0 0 2 volume - -, f 5;
#X floatatom 299 283 5 0 0 2 playback_speed - -, f 5;
#X msg 257 266 3;
#X text 241 245 #3 \, fixed;
#X obj 406 338 -;
#X obj 406 316 f 1;
#X obj 406 294 t b a;
#X text 442 317 =;
#X obj 464 317 expr (1-$f1);
#X connect 5 0 6 0;
#X connect 6 0 43 0;
#X connect 7 0 8 0;
#X connect 7 1 10 0;
#X connect 8 0 58 0;
#X connect 9 0 4 0;
#X connect 9 0 51 0;
#X connect 12 0 4 2;
#X connect 13 0 4 1;
#X connect 14 0 15 0;
#X connect 15 0 19 0;
#X connect 17 0 36 0;
#X connect 18 0 37 0;
#X connect 19 0 75 0;
#X connect 19 2 27 0;
#X connect 19 3 22 0;
#X connect 22 0 17 0;
#X connect 22 1 18 0;
#X connect 22 2 25 0;
#X connect 25 0 38 0;
#X connect 27 1 28 0;
#X connect 28 0 29 0;
#X connect 28 0 84 0;
#X connect 29 0 30 0;
#X connect 30 0 77 0;
#X connect 31 0 34 0;
#X connect 32 0 35 0;
#X connect 33 0 35 1;
#X connect 34 0 39 0;
#X connect 35 0 34 1;
#X connect 36 0 31 0;
#X connect 37 0 32 0;
#X connect 38 0 33 0;
#X connect 39 0 67 0;
#X connect 40 0 20 0;
#X connect 43 0 7 0;
#X connect 43 1 44 0;
#X connect 44 0 45 0;
#X connect 44 1 46 0;
#X connect 45 0 62 0;
#X connect 48 0 47 0;
#X connect 48 0 52 0;
#X connect 49 0 47 2;
#X connect 50 0 47 1;
#X connect 51 0 3 0;
#X connect 52 0 3 0;
#X connect 55 0 58 1;
#X connect 56 0 57 0;
#X connect 57 0 9 0;
#X connect 58 0 55 0;
#X connect 58 0 56 0;
#X connect 59 0 62 1;
#X connect 60 0 61 0;
#X connect 61 0 48 0;
#X connect 62 0 59 0;
#X connect 62 0 60 0;
#X connect 63 0 64 0;
#X connect 63 0 93 0;
#X connect 64 0 12 0;
#X connect 64 0 49 0;
#X connect 64 0 13 0;
#X connect 64 0 50 0;
#X connect 64 0 92 0;
#X connect 67 0 40 0;
#X connect 67 0 69 0;
#X connect 69 0 70 0;
#X connect 69 0 13 0;
#X connect 70 0 79 0;
#X connect 74 0 76 0;
#X connect 74 0 97 0;
#X connect 74 0 91 0;
#X connect 75 0 74 0;
#X connect 76 0 82 0;
#X connect 77 0 81 0;
#X connect 80 0 79 0;
#X connect 84 0 50 0;
#X connect 84 0 80 0;
#X connect 90 0 89 0;
#X connect 91 0 89 2;
#X connect 92 0 89 1;
#X connect 93 0 90 0;
#X connect 95 0 49 0;
#X connect 96 0 95 0;
#X connect 97 0 96 0;
#X connect 97 1 95 1;
