#N canvas 404 22 940 702 10;
#X text -15 -20 .anchor.;
#X text 499 513 .anchor.;
#N canvas 308 282 465 357 menu 0;
#X obj 23 117 s toGUI;
#X text 7 3 .anchor.;
#X text 369 307 .anchor.;
#X obj 23 165 r fromGUI;
#X obj 23 193 route list;
#X obj 23 221 route /menu.sel.action;
#X floatatom 23 277 5 0 0 3 s:sensor-sel - sensor-sel, f 5;
#X obj 120 294 s toGUI;
#X msg 120 266 list /lbl.sel.action \$1;
#X obj 23 249 unpack f s;
#X obj 23 35 loadbang;
#X msg 23 63 list /menu.sel.action tilt_1 tilt_2 shake(iOS) gyro_1
gyro_2 gyro_3 accel_1 accel_2 accel_3 motion_1 motion_2 motion_3 compass(android)
;
#X connect 3 0 4 0;
#X connect 4 0 5 0;
#X connect 5 0 9 0;
#X connect 8 0 7 0;
#X connect 9 0 6 0;
#X connect 9 1 8 0;
#X connect 10 0 11 0;
#X connect 11 0 0 0;
#X restore 2 10 pd menu;
#N canvas 5 234 1262 473 sensor 0;
#X obj 28 39 r fromSystem;
#X obj 28 67 route list;
#X obj 28 344 spigot;
#X obj 67 290 == 0;
#X obj 28 152 unpack f f;
#X obj 298 152 unpack f f f;
#X obj 568 152 unpack f f f;
#X obj 838 152 unpack f f f;
#X obj 298 212 / 3.14159;
#X obj 388 212 / 3.14159;
#X obj 478 212 / 3.14159;
#X obj 838 212 / 3.14159;
#X obj 928 212 / 3.14159;
#X obj 1018 212 / 3.14159;
#X obj 1108 112 / 360;
#X obj 67 318 tgl 15 0 empty empty empty 17 7 0 10 -262144 -1 -1 0
1;
#X floatatom 67 265 5 0 0 2 r:sensor-sel sensor-sel -, f 5;
#X text 7 5 .anchor.;
#X text 1187 440 .anchor.;
#X obj 118 344 spigot;
#X obj 157 318 tgl 15 0 empty empty empty 17 7 0 10 -262144 -1 -1 0
1;
#X floatatom 157 265 5 0 0 2 r:sensor-sel sensor-sel -, f 5;
#X obj 208 344 spigot;
#X obj 247 318 tgl 15 0 empty empty empty 17 7 0 10 -262144 -1 -1 0
1;
#X floatatom 247 265 5 0 0 2 r:sensor-sel sensor-sel -, f 5;
#X obj 298 344 spigot;
#X obj 337 318 tgl 15 0 empty empty empty 17 7 0 10 -262144 -1 -1 0
1;
#X floatatom 337 265 5 0 0 2 r:sensor-sel sensor-sel -, f 5;
#X obj 388 344 spigot;
#X obj 427 318 tgl 15 0 empty empty empty 17 7 0 10 -262144 -1 -1 0
1;
#X floatatom 427 265 5 0 0 2 r:sensor-sel sensor-sel -, f 5;
#X obj 478 344 spigot;
#X obj 517 318 tgl 15 0 empty empty empty 17 7 0 10 -262144 -1 -1 0
1;
#X floatatom 517 265 5 0 0 2 r:sensor-sel sensor-sel -, f 5;
#X obj 568 344 spigot;
#X obj 607 318 tgl 15 0 empty empty empty 17 7 0 10 -262144 -1 -1 0
1;
#X floatatom 607 265 5 0 0 2 r:sensor-sel sensor-sel -, f 5;
#X obj 658 344 spigot;
#X obj 697 318 tgl 15 0 empty empty empty 17 7 0 10 -262144 -1 -1 0
1;
#X floatatom 697 265 5 0 0 2 r:sensor-sel sensor-sel -, f 5;
#X obj 748 344 spigot;
#X obj 787 318 tgl 15 0 empty empty empty 17 7 0 10 -262144 -1 -1 0
1;
#X floatatom 787 265 5 0 0 2 r:sensor-sel sensor-sel -, f 5;
#X obj 838 344 spigot;
#X obj 877 318 tgl 15 0 empty empty empty 17 7 0 10 -262144 -1 -1 0
1;
#X floatatom 877 265 5 0 0 2 r:sensor-sel sensor-sel -, f 5;
#X obj 928 344 spigot;
#X obj 967 318 tgl 15 0 empty empty empty 17 7 0 10 -262144 -1 -1 0
1;
#X floatatom 967 265 5 0 0 2 r:sensor-sel sensor-sel -, f 5;
#X obj 1018 344 spigot;
#X obj 1057 318 tgl 15 0 empty empty empty 17 7 0 10 -262144 -1 -1
0 1;
#X floatatom 1057 265 5 0 0 2 r:sensor-sel sensor-sel -, f 5;
#X obj 1108 344 spigot;
#X obj 1147 318 tgl 15 0 empty empty empty 17 7 0 10 -262144 -1 -1
0 1;
#X floatatom 1147 265 5 0 0 2 r:sensor-sel sensor-sel -, f 5;
#X obj 157 290 == 1;
#X obj 247 290 == 2;
#X obj 337 290 == 3;
#X obj 427 290 == 4;
#X obj 517 290 == 5;
#X obj 607 290 == 6;
#X obj 697 290 == 7;
#X obj 787 290 == 8;
#X obj 877 290 == 9;
#X obj 967 290 == 10;
#X obj 1057 290 == 11;
#X obj 1147 290 == 12;
#X obj 568 417 outlet;
#X obj 28 95 route /tilts /shake /gyro /accel /motion /compass;
#X connect 0 0 1 0;
#X connect 1 0 68 0;
#X connect 2 0 67 0;
#X connect 3 0 15 0;
#X connect 4 0 2 0;
#X connect 4 1 19 0;
#X connect 5 0 8 0;
#X connect 5 1 9 0;
#X connect 5 2 10 0;
#X connect 6 0 34 0;
#X connect 6 1 37 0;
#X connect 6 2 40 0;
#X connect 7 0 11 0;
#X connect 7 1 12 0;
#X connect 7 2 13 0;
#X connect 8 0 25 0;
#X connect 9 0 28 0;
#X connect 10 0 31 0;
#X connect 11 0 43 0;
#X connect 12 0 46 0;
#X connect 13 0 49 0;
#X connect 14 0 52 0;
#X connect 15 0 2 1;
#X connect 16 0 3 0;
#X connect 19 0 67 0;
#X connect 20 0 19 1;
#X connect 21 0 55 0;
#X connect 22 0 67 0;
#X connect 23 0 22 1;
#X connect 24 0 56 0;
#X connect 25 0 67 0;
#X connect 26 0 25 1;
#X connect 27 0 57 0;
#X connect 28 0 67 0;
#X connect 29 0 28 1;
#X connect 30 0 58 0;
#X connect 31 0 67 0;
#X connect 32 0 31 1;
#X connect 33 0 59 0;
#X connect 34 0 67 0;
#X connect 35 0 34 1;
#X connect 36 0 60 0;
#X connect 37 0 67 0;
#X connect 38 0 37 1;
#X connect 39 0 61 0;
#X connect 40 0 67 0;
#X connect 41 0 40 1;
#X connect 42 0 62 0;
#X connect 43 0 67 0;
#X connect 44 0 43 1;
#X connect 45 0 63 0;
#X connect 46 0 67 0;
#X connect 47 0 46 1;
#X connect 48 0 64 0;
#X connect 49 0 67 0;
#X connect 50 0 49 1;
#X connect 51 0 65 0;
#X connect 52 0 67 0;
#X connect 53 0 52 1;
#X connect 54 0 66 0;
#X connect 55 0 20 0;
#X connect 56 0 23 0;
#X connect 57 0 26 0;
#X connect 58 0 29 0;
#X connect 59 0 32 0;
#X connect 60 0 35 0;
#X connect 61 0 38 0;
#X connect 62 0 41 0;
#X connect 63 0 44 0;
#X connect 64 0 47 0;
#X connect 65 0 50 0;
#X connect 66 0 53 0;
#X connect 68 0 4 0;
#X connect 68 1 22 0;
#X connect 68 2 5 0;
#X connect 68 3 6 0;
#X connect 68 4 7 0;
#X connect 68 5 14 0;
#X restore 2 58 pd sensor;
#X obj 2 139 tabwrite /tbl.action.monitor;
#X obj 34 167 f;
#X obj 70 167 + 1;
#X floatatom 34 223 5 0 0 0 - - -, f 5;
#X obj 2 111 t a b;
#X floatatom 262 86 5 0 0 2 r:sensor-sel sensor-sel -, f 5;
#X obj 262 111 bng 15 250 50 0 empty empty empty 17 7 0 10 -262144
-1 -1;
#X msg 262 150 0;
#X obj 44 111 table /tbl.action.monitor 441;
#X msg 307 126 \; /tbl.action.monitor resize 1 \; /tbl.action.monitor
0 0 \; /tbl.action.monitor resize 441;
#X obj 34 195 % 441;
#N canvas 0 50 491 465 range 0;
#X obj 28 33 r fromGUI;
#X obj 28 61 route list;
#X obj 28 89 route /lcd.action.range;
#X obj 28 117 route 1 2 0;
#X text 122 117 touch : down / drag / up;
#X obj 28 145 unpack f f;
#X obj 52 173 unpack f f;
#X obj 77 201 unpack f f;
#X floatatom 225 199 5 0 0 2 range-from - -, f 5;
#X floatatom 225 255 5 0 0 2 range-to - -, f 5;
#X obj 42 364 pack f f;
#X msg 42 392 list /lcd.action.range paintrect 0 \$1 1 \$2;
#X obj 42 420 s toGUI;
#X msg 28 336 list /lcd.action.range clear;
#X obj 42 309 t a b;
#X obj 161 162 - 0.5;
#X obj 161 218 - 0.5;
#X obj 319 213 -;
#X obj 319 241 abs;
#X floatatom 329 269 5 0 0 1 s:range-amount - range-amount, f 5;
#X obj 274 297 min;
#X floatatom 329 314 5 0 0 1 s:range-start - range-start, f 5;
#X obj 225 280 t a a;
#X obj 319 339 +;
#X floatatom 329 366 5 0 0 1 s:range-end - range-end, f 5;
#X text 8 5 .anchor.;
#X text 415 433 .anchor.;
#X obj 161 182 * -2;
#X obj 161 238 * -2;
#X connect 0 0 1 0;
#X connect 1 0 2 0;
#X connect 2 0 3 0;
#X connect 3 0 5 0;
#X connect 3 0 13 0;
#X connect 3 1 6 0;
#X connect 3 2 7 0;
#X connect 5 1 10 1;
#X connect 5 1 15 0;
#X connect 6 1 14 0;
#X connect 7 1 14 0;
#X connect 7 1 16 0;
#X connect 8 0 17 1;
#X connect 8 0 20 1;
#X connect 9 0 22 0;
#X connect 10 0 11 0;
#X connect 11 0 12 0;
#X connect 13 0 12 0;
#X connect 14 0 10 0;
#X connect 14 1 13 0;
#X connect 15 0 27 0;
#X connect 16 0 28 0;
#X connect 17 0 18 0;
#X connect 18 0 19 0;
#X connect 18 0 23 0;
#X connect 20 0 21 0;
#X connect 20 0 23 1;
#X connect 22 0 17 0;
#X connect 22 1 20 0;
#X connect 23 0 24 0;
#X connect 27 0 8 0;
#X connect 28 0 9 0;
#X restore 183 10 pd range;
#X floatatom 679 25 5 0 0 1 r:range-start range-start -, f 5;
#X floatatom 707 72 5 0 0 1 r:range-end range-end -, f 5;
#X obj 2 271 r fromGUI;
#X obj 2 299 route list;
#X obj 609 238 soundshot;
#X obj 2 380 filepick rec_%s.wav;
#X floatatom 12 356 5 0 0 1 s:sndno - sndno, f 5;
#X obj 83 408 route 1 0;
#X obj 629 205 bng 15 250 50 0 empty empty empty 17 7 0 10 -262144
-1 -1;
#X obj 141 451 / 5;
#X floatatom 744 152 5 0 0 0 vol - -, f 5;
#X floatatom 12 86 5 0 0 1 s:sensor - sensor, f 5;
#X floatatom 629 -1 5 0 0 1 r:sensor sensor -, f 5;
#X obj 661 50 max;
#X obj 661 86 min;
#X obj 629 18 t a a;
#X obj 629 113 ==;
#X obj 629 141 change;
#X obj 629 169 sel 1;
#X obj 609 264 spigot;
#X obj 702 249 tgl 15 0 empty empty empty 17 7 0 10 -262144 -1 -1 0
1;
#X msg 702 210 1;
#X msg 702 186 0;
#X obj 661 216 bng 15 250 50 0 empty empty empty 17 7 0 10 -262144
-1 -1;
#X obj 583 267 bng 15 250 50 0 empty empty empty 17 7 0 10 -262144
-1 -1;
#X obj 12 468 soundshot;
#X obj 29 435 bng 15 250 50 0 empty empty empty 17 7 0 10 -262144 -1
-1;
#X floatatom 141 479 5 0 0 1 s:sndvol - sndvol, f 5;
#X obj 46 445 bng 15 250 50 0 empty empty empty 17 7 0 10 -262144 -1
-1;
#X floatatom 300 421 5 0 0 1 r:range-start range-start -, f 5;
#X floatatom 328 460 5 0 0 1 r:range-end range-end -, f 5;
#X floatatom 250 393 5 0 0 1 r:sensor sensor -, f 5;
#X obj 282 446 max;
#X obj 282 474 min;
#X obj 250 418 t a a;
#X obj 250 501 ==;
#X obj 250 529 change;
#X text 681 116 **looping (example);
#X obj 2 328 route /knob.sndno /btn.play /slid.vol /slid.spd;
#X obj 328 541 tgl 15 0 empty \$0-tgl.test r:0-tgl.test 17 7 0 10 -262144
-1 -1 0 1;
#N canvas 493 263 721 407 gui 1;
#X obj 174 43 loadbang;
#X msg 174 71 1;
#X obj 174 99 * 5;
#X obj 174 155 s toGUI;
#X msg 174 127 list /slid.vol \$1;
#X obj 314 43 loadbang;
#X msg 314 71 1;
#X obj 314 99 * 5;
#X obj 314 155 s toGUI;
#X msg 314 127 list /slid.spd \$1;
#X text 8 10 .anchor.;
#X text 642 377 .anchor.;
#X obj 24 213 r fromGUI;
#X obj 24 297 route 1 0;
#X obj 24 345 bng 15 250 50 0 \$0-btn.capture empty s:0-btn.capture
17 7 0 10 -262144 -1 -1;
#X obj 54 325 bng 15 250 50 0 empty empty empty 17 7 0 10 -262144 -1
-1;
#X obj 24 241 route list;
#X obj 246 297 tgl 15 0 \$0-tgl.test empty s:0-tgl.test 17 7 0 10 -262144
-1 -1 0 1;
#X obj 135 297 route 1 0;
#X obj 135 345 bng 15 250 50 0 \$0-btn.action.no.next empty s:0-btn.action.no.next
17 7 0 10 -262144 -1 -1;
#X obj 165 325 bng 15 250 50 0 empty empty empty 17 7 0 10 -262144
-1 -1;
#X obj 24 269 route /btn.capture /btn.action.no.next /tgl.test;
#X msg 465 99 list /tbl.action.monitor refresh;
#X obj 465 43 loadbang;
#X obj 465 71 metro 100;
#X obj 465 127 s toGUI;
#X obj 511 335 s toGUI;
#X msg 511 307 list /lbl.action.no \$1;
#X obj 511 225 bng 15 250 50 0 empty \$0-btn.action.no.next r:0-btn.action.no.next
17 7 0 10 -262144 -1 -1;
#X obj 511 251 f;
#X obj 547 251 + 1;
#X floatatom 465 366 5 0 0 1 s:action.no - action.no, f 5;
#X msg 465 234 0;
#X obj 465 197 loadbang;
#X obj 24 43 loadbang;
#X obj 24 155 s toGUI;
#X msg 24 127 list /knob.sndno \$1;
#X msg 24 71 0;
#X obj 511 279 % 10;
#X connect 0 0 1 0;
#X connect 1 0 2 0;
#X connect 2 0 4 0;
#X connect 4 0 3 0;
#X connect 5 0 6 0;
#X connect 6 0 7 0;
#X connect 7 0 9 0;
#X connect 9 0 8 0;
#X connect 12 0 16 0;
#X connect 13 0 14 0;
#X connect 13 1 15 0;
#X connect 16 0 21 0;
#X connect 18 0 19 0;
#X connect 18 1 20 0;
#X connect 21 0 13 0;
#X connect 21 1 18 0;
#X connect 21 2 17 0;
#X connect 22 0 25 0;
#X connect 23 0 24 0;
#X connect 24 0 22 0;
#X connect 27 0 26 0;
#X connect 28 0 29 0;
#X connect 29 0 30 0;
#X connect 29 0 38 0;
#X connect 30 0 29 1;
#X connect 32 0 29 0;
#X connect 33 0 32 0;
#X connect 34 0 37 0;
#X connect 36 0 35 0;
#X connect 37 0 36 0;
#X connect 38 0 27 0;
#X connect 38 0 31 0;
#X restore 96 10 pd gui;
#N canvas 856 212 419 379 capture 0;
#X obj 20 330 action-writer;
#X obj 20 38 bng 15 250 50 0 empty \$0-btn.capture r:0-btn.capture
17 7 0 10 -262144 -1 -1;
#X obj 108 249 pack f f f f f f;
#X floatatom 173 224 5 0 0 2 r:sensor-sel sensor-sel -, f 5;
#X floatatom 195 154 5 0 0 2 r:range-start range-start -, f 5;
#X floatatom 217 189 5 0 0 2 r:range-end range-end -, f 5;
#X floatatom 129 154 5 0 0 2 r:sndno sndno -, f 5;
#X floatatom 151 189 5 0 0 2 r:sndvol sndvol -, f 5;
#X msg 108 103 set \$1;
#X floatatom 108 78 5 0 0 1 r:action.no action.no -, f 5;
#X msg 108 193 0;
#X floatatom 64 305 5 0 0 1 r:action.no action.no -, f 5;
#X obj 20 176 t b b;
#X text 4 3 .anchor.;
#X text 343 345 .anchor.;
#X obj 108 221 * 20;
#X msg 108 277 #X obj 0 \$1 action-templ2 \$2 \$3 \$4 \$5 \$6 \;;
#X connect 1 0 12 0;
#X connect 2 0 16 0;
#X connect 3 0 2 3;
#X connect 4 0 2 4;
#X connect 5 0 2 5;
#X connect 6 0 2 1;
#X connect 7 0 2 2;
#X connect 8 0 10 0;
#X connect 9 0 8 0;
#X connect 10 0 15 0;
#X connect 11 0 0 1;
#X connect 12 0 0 0;
#X connect 12 1 10 0;
#X connect 15 0 2 0;
#X connect 16 0 0 2;
#X restore 273 11 pd capture;
#X obj 609 418 soundshot;
#X obj 629 385 bng 15 250 50 0 empty empty empty 17 7 0 10 -262144
-1 -1;
#X floatatom 744 332 5 0 0 0 vol - -, f 5;
#X obj 629 321 change;
#X obj 629 349 sel 1;
#X obj 609 444 spigot;
#X obj 702 429 tgl 15 0 empty empty empty 17 7 0 10 -262144 -1 -1 0
1;
#X msg 702 390 1;
#X msg 702 366 0;
#X obj 661 396 bng 15 250 50 0 empty empty empty 17 7 0 10 -262144
-1 -1;
#X obj 583 447 bng 15 250 50 0 empty empty empty 17 7 0 10 -262144
-1 -1;
#X obj 2 618 soundloop;
#X obj 250 556 *;
#X connect 3 0 27 0;
#X connect 3 0 8 0;
#X connect 5 0 6 0;
#X connect 5 0 14 0;
#X connect 6 0 5 1;
#X connect 7 0 4 1;
#X connect 8 0 4 0;
#X connect 8 1 5 0;
#X connect 9 0 10 0;
#X connect 10 0 13 0;
#X connect 10 0 11 0;
#X connect 11 0 5 0;
#X connect 14 0 7 0;
#X connect 16 0 29 1;
#X connect 17 0 30 1;
#X connect 18 0 19 0;
#X connect 19 0 54 0;
#X connect 20 0 35 0;
#X connect 20 0 40 0;
#X connect 21 0 69 0;
#X connect 21 0 41 0;
#X connect 23 0 42 0;
#X connect 24 0 20 1;
#X connect 25 0 43 0;
#X connect 25 0 69 2;
#X connect 25 0 41 3;
#X connect 26 0 20 3;
#X connect 28 0 31 0;
#X connect 29 0 30 0;
#X connect 30 0 32 1;
#X connect 31 0 32 0;
#X connect 31 1 29 0;
#X connect 32 0 33 0;
#X connect 33 0 34 0;
#X connect 34 0 24 0;
#X connect 34 0 37 0;
#X connect 34 1 38 0;
#X connect 34 1 39 0;
#X connect 35 0 24 0;
#X connect 36 0 35 1;
#X connect 37 0 36 0;
#X connect 38 0 36 0;
#X connect 39 0 20 2;
#X connect 42 0 41 1;
#X connect 44 0 41 2;
#X connect 45 0 48 1;
#X connect 46 0 49 1;
#X connect 47 0 50 0;
#X connect 48 0 49 0;
#X connect 49 0 51 1;
#X connect 50 0 51 0;
#X connect 50 1 48 0;
#X connect 51 0 52 0;
#X connect 52 0 70 0;
#X connect 54 0 22 0;
#X connect 54 0 21 0;
#X connect 54 1 23 0;
#X connect 54 2 25 0;
#X connect 55 0 70 1;
#X connect 58 0 63 0;
#X connect 58 0 68 0;
#X connect 59 0 58 1;
#X connect 60 0 58 3;
#X connect 61 0 62 0;
#X connect 62 0 59 0;
#X connect 62 0 65 0;
#X connect 62 1 66 0;
#X connect 62 1 67 0;
#X connect 63 0 59 0;
#X connect 64 0 63 1;
#X connect 65 0 64 0;
#X connect 66 0 64 0;
#X connect 67 0 58 2;
#X connect 70 0 69 1;
