#N canvas 298 22 790 650 10;
#X text 8 6 .anchor.;
#X text 713 672 .anchor.;
#X text 590 10 designed by D. Yi @ 2014 fall;
#X obj 32 663 send toGUI;
#X msg 32 635 list /file.num \$1;
#X obj 32 55 receive fromGUI;
#X obj 32 77 route list;
#X obj 32 121 route 1 0;
#X obj 65 237 + 1;
#X floatatom 32 266 5 0 0 0 - - -;
#X obj 32 149 bng 15 250 50 0 empty empty pressed 17 7 0 10 -262144
-1 -1;
#X obj 32 99 route /open.next;
#X obj 32 291 % 10;
#X floatatom 32 519 5 0 0 2 sound_select - -;
#X obj 57 169 bng 15 250 50 0 empty empty released 17 7 0 10 -262144
-1 -1;
#X text 45 31 push-button;
#X text 45 213 a counter cycling between 0 ~ 9;
#X text 138 99 name of btn. message;
#X obj 174 358 loadbang;
#X floatatom 100 459 5 0 0 2 volume - -;
#X floatatom 74 489 5 0 0 2 playback_speed - -;
#X msg 220 462 1;
#X text 67 291 <-- limiting selectable sounds to 0 ~ 9;
#X obj 367 55 receive fromSystem;
#X obj 367 77 list trim;
#X text 378 32 action-data;
#X obj 415 151 unpack f f;
#X floatatom 415 205 5 0 0 0 X - -;
#X floatatom 472 205 5 0 0 1 Y - -;
#X msg 174 432 1;
#X obj 367 99 route /compass /tilts /accel /gyro /motion /shake;
#X text 478 178 -1 ~ +1;
#X text 368 178 -1 ~ +1;
#X obj 415 663 send toGUI;
#X obj 415 579 pack f f;
#X text 45 610 display sth. on GUI;
#X text 386 549 display sth. on GUI;
#X obj 590 591 send toGUI;
#X obj 590 535 pack f f;
#X text 561 504 display sth. on GUI;
#X obj 590 299 + 1;
#X obj 590 327 / 2;
#X obj 635 299 + 1;
#X obj 635 327 / 2;
#X text 642 402 0 ~ +1;
#X obj 472 442 + 2;
#X text 325 439 1 ~ 3;
#X obj 415 472 + 1;
#X msg 415 635 list /print.xy play: \$1 vol: \$2;
#X text 323 470 0 ~ +2;
#X text 548 402 0 ~ +1;
#X text 429 123 /tilts (float) (float) - "cooked" XY tilt values -1
to 1;
#X text 151 336 initial settings;
#X obj 32 237 f 0;
#X msg 267 492 0;
#X text 472 509 1 ~ 3;
#X text 373 513 0 ~ +2;
#X text 478 308 -1 ~ +1;
#X text 368 308 -1 ~ +1;
#X text 248 403 1st;
#X text 201 403 2nd;
#X text 155 403 3rd;
#X text 283 380 scheduler;
#X obj 174 380 t bang bang bang;
#X obj 96 380 t b b b;
#X text 150 381 ==;
#X obj 415 607 skipmsg 200;
#X text 583 215 some math!;
#X msg 590 563 list /scope.xy set \$1 \$2;
#X text 491 607 (optional);
#X obj 232 556 bng 15 250 50 0 empty empty 1-shot-play-bang 17 7 0
10 -262144 -1 -1;
#X obj 207 604 soundshot;
#X msg 155 554 0;
#X obj 49 543 soundloop;
#X connect 4 0 3 0;
#X connect 5 0 6 0;
#X connect 6 0 11 0;
#X connect 7 0 10 0;
#X connect 7 1 14 0;
#X connect 8 0 53 1;
#X connect 9 0 12 0;
#X connect 10 0 53 0;
#X connect 11 0 7 0;
#X connect 12 0 13 0;
#X connect 13 0 4 0;
#X connect 13 0 71 0;
#X connect 13 0 73 0;
#X connect 18 0 63 0;
#X connect 19 0 71 2;
#X connect 19 0 73 2;
#X connect 20 0 73 1;
#X connect 21 0 20 0;
#X connect 23 0 24 0;
#X connect 24 0 30 0;
#X connect 26 0 27 0;
#X connect 26 1 28 0;
#X connect 27 0 40 0;
#X connect 27 0 47 0;
#X connect 28 0 42 0;
#X connect 28 0 45 0;
#X connect 29 0 19 0;
#X connect 30 1 26 0;
#X connect 34 0 66 0;
#X connect 38 0 68 0;
#X connect 40 0 41 0;
#X connect 41 0 38 0;
#X connect 42 0 43 0;
#X connect 43 0 38 1;
#X connect 45 0 34 1;
#X connect 45 0 19 0;
#X connect 47 0 34 0;
#X connect 47 0 20 0;
#X connect 48 0 33 0;
#X connect 53 0 8 0;
#X connect 53 0 9 0;
#X connect 54 0 13 0;
#X connect 63 0 29 0;
#X connect 63 1 21 0;
#X connect 63 2 54 0;
#X connect 66 0 48 0;
#X connect 68 0 37 0;
#X connect 70 0 71 1;
#X connect 70 0 72 0;
