#N canvas 300 50 532 713 10;
#X obj 93 501 textfile;
#X text 243 34 modify a single line (nth) in a file;
#X obj 93 660 textfile;
#X obj 93 585 list trim;
#X obj 93 557 list prepend add;
#X obj 38 228 f;
#X obj 74 228 + 1;
#X msg 100 174 0;
#X floatatom 38 256 5 0 0 0 - - -;
#X obj 70 337 sel;
#X obj 38 202 bng 15 250 50 0 empty empty empty 17 7 0 10 -262144 -1
-1;
#X obj 130 365 bng 15 250 50 0 empty empty empty 17 7 0 10 -262144
-1 -1;
#X obj 70 365 bng 15 250 50 0 empty empty empty 17 7 0 10 -262144 -1
-1;
#X obj 38 174 until;
#X msg 38 118 10;
#X obj 38 65 bng 15 250 50 0 empty empty empty 17 7 0 10 -262144 -1
-1;
#X obj 38 337 sel;
#X obj 38 365 bng 15 250 50 0 empty empty empty 17 7 0 10 -262144 -1
-1;
#X msg 38 613 write action-all.pd;
#X obj 38 146 t a a;
#X obj 38 281 t a a;
#X msg 162 174 read action-all.pd \, rewind \, bang;
#X msg 256 643 clear;
#X obj 38 91 trigger bang bang bang bang;
#X obj 38 309 + 1;
#X obj 93 529 spigot;
#X obj 162 501 tgl 15 0 empty empty empty 17 7 0 10 -262144 -1 -1 1
1;
#X msg 162 473 1;
#X msg 116 473 0;
#X obj 130 400 t b b;
#X obj 70 400 t b b b;
#X obj 224 456 t b b;
#X text 6 4 .anchor.;
#X text 454 677 .anchor.;
#X msg 70 428 #X obj 0 140 action-templ 2 0.6 0 0.0595238 0.77381;
#X text 164 319 <-- line # to be changed!;
#X obj 361 316 inlet;
#X obj 361 344 list prepend set;
#X obj 361 372 list trim;
#X obj 268 233 inlet;
#X text 359 391 COPIED before;
#X obj 38 36 inlet;
#X text 87 35 1-bang-to update!;
#X text 315 233 2-line# (float);
#X text 409 316 3-new msg;
#X floatatom 120 323 5 0 0 0 - - -;
#X text 232 409 ** new content for that line!;
#X connect 0 0 25 0;
#X connect 3 0 2 0;
#X connect 4 0 3 0;
#X connect 5 0 6 0;
#X connect 5 0 8 0;
#X connect 6 0 5 1;
#X connect 7 0 5 1;
#X connect 8 0 20 0;
#X connect 9 0 12 0;
#X connect 9 1 11 0;
#X connect 10 0 5 0;
#X connect 11 0 29 0;
#X connect 12 0 30 0;
#X connect 13 0 10 0;
#X connect 14 0 19 0;
#X connect 15 0 23 0;
#X connect 16 0 17 0;
#X connect 17 0 18 0;
#X connect 18 0 2 0;
#X connect 19 0 13 0;
#X connect 19 1 16 1;
#X connect 20 0 24 0;
#X connect 20 1 9 0;
#X connect 21 0 0 0;
#X connect 22 0 2 0;
#X connect 23 0 14 0;
#X connect 23 1 7 0;
#X connect 23 2 21 0;
#X connect 23 3 31 0;
#X connect 24 0 16 0;
#X connect 25 0 4 0;
#X connect 26 0 25 1;
#X connect 27 0 26 0;
#X connect 28 0 26 0;
#X connect 29 0 0 0;
#X connect 29 1 27 0;
#X connect 30 0 34 0;
#X connect 30 1 0 0;
#X connect 30 2 28 0;
#X connect 31 0 27 0;
#X connect 31 1 22 0;
#X connect 34 0 4 0;
#X connect 36 0 37 0;
#X connect 37 0 38 0;
#X connect 38 0 34 0;
#X connect 39 0 45 0;
#X connect 41 0 15 0;
#X connect 45 0 9 1;
