#N canvas 113 22 591 643 10;
#X obj 39 148 soundfiler;
#X text 8 6 .anchor.;
#X text 519 612 .anchor.;
#X obj 39 459 phasor~;
#X obj 39 543 dac~;
#X floatatom 151 165 12 0 0 3 samplesize - -, f 12;
#X obj 39 204 samplerate~;
#X obj 39 257 /;
#X floatatom 39 232 7 0 0 1 samplerate - -, f 7;
#X floatatom 39 285 5 0 0 1 playback_speed_x1 - -, f 5;
#X obj 39 487 *~;
#X obj 39 176 t b a;
#X obj 50 308 v playspeed_x1;
#X obj 202 120 table /playBuf 8820;
#X obj 39 515 tabread~ /playBuf;
#X obj 50 366 v playspeed_x1;
#X floatatom 39 394 5 0 0 0 - - -, f 5;
#X obj 156 351 bng 15 250 50 0 empty empty empty 17 7 0 10 -262144
-1 -1;
#X obj 228 204 receive fromSystem;
#X obj 228 260 route /tilts /accel /gyro /motion /accelFrequency /gyroFrequency
/motionFrequency;
#X obj 228 232 list trim;
#X obj 228 352 unpack f f f;
#X floatatom 228 438 5 0 0 0 - - -, f 5;
#X obj 78 432 spigot;
#N canvas 470 22 450 433 menu.and.commands 0;
#X obj 20 184 receive fromGUI;
#X obj 20 206 route list;
#X obj 20 116 send toGUI;
#X obj 20 60 loadbang;
#X text 19 30 menu items init.;
#X obj 274 334 bng 15 250 50 0 \$0-preview-start empty s:0-preview-start
17 7 0 10 -262144 -1 -1;
#X text 378 399 .anchor.;
#X text 5 2 .anchor.;
#X obj 174 360 bng 15 250 50 0 \$0-stop empty s:0-stop 17 7 0 10 -262144
-1 -1;
#X obj 149 334 bng 15 250 50 0 \$0-start empty s:0-start 17 7 0 10
-262144 -1 -1;
#X obj 149 306 route 1 0;
#X obj 135 201 print fromGUI;
#X msg 20 88 list /menu.cmd new.sound!;
#X obj 274 306 route 1 0;
#X obj 299 360 bng 15 250 50 0 \$0-preview-stop empty s:0-preview-stop
17 7 0 10 -262144 -1 -1;
#X obj 186 256 tgl 15 0 \$0-sensor.tgl empty s:0-sensor.tgl 17 7 0
10 -262144 -1 -1 0 1;
#X obj 20 387 outlet;
#X obj 20 228 route /open.next /playspeed.x1 /sensor.tgl;
#X obj 103 387 outlet;
#X obj 103 256 route 1 0;
#X obj 20 256 route 1 0;
#X connect 0 0 1 0;
#X connect 0 0 11 0;
#X connect 1 0 17 0;
#X connect 10 0 9 0;
#X connect 10 1 8 0;
#X connect 13 0 5 0;
#X connect 13 1 14 0;
#X connect 17 0 20 0;
#X connect 17 1 19 0;
#X connect 17 2 15 0;
#X connect 19 0 18 0;
#X connect 20 0 16 0;
#X restore 39 36 pd menu.and.commands;
#X obj 111 402 tgl 15 0 empty \$0-sensor.tgl r:0-sensor.tgl 17 7 0
10 -262144 -1 -1 0 1;
#X obj 350 353 send toGUI;
#N canvas 0 22 834 545 speedlim 0;
#X msg 83 139 1;
#X obj 57 164 spigot 1;
#X obj 87 93 t b b;
#X msg 112 139 0;
#X obj 85 115 delay 200;
#X obj 60 49 inlet;
#X obj 59 213 outlet;
#X connect 0 0 1 1;
#X connect 1 0 2 0;
#X connect 1 0 6 0;
#X connect 2 0 4 0;
#X connect 2 1 3 0;
#X connect 3 0 1 1;
#X connect 4 0 0 0;
#X connect 5 0 1 0;
#X restore 350 303 pd speedlim;
#X obj 328 463 + 1;
#X obj 328 491 / 2;
#X obj 328 575 send toGUI;
#X obj 39 70 bng 15 250 50 0 empty empty empty 17 7 0 10 -262144 -1
-1;
#X obj 175 53 loadbang;
#N canvas 599 22 235 485 filepick 0;
#X floatatom 33 140 5 0 0 0 - - -, f 5;
#X obj 84 254 / 10;
#X floatatom 84 298 5 0 0 0 - - -, f 5;
#X floatatom 129 276 5 0 0 0 - - -, f 5;
#X obj 129 254 % 10;
#X obj 84 276 int;
#X floatatom 33 235 5 0 0 0 - - -, f 5;
#X floatatom 84 213 5 0 0 0 - - -, f 5;
#X obj 33 213 int;
#X obj 33 191 / 100;
#X obj 84 191 % 100;
#X obj 33 317 pack f f f;
#X obj 84 232 t a a;
#X obj 33 169 t a a;
#X msg 33 339 symbol \$1\$2\$3;
#X obj 33 361 makefilename rec_%s.wav;
#X obj 33 445 outlet;
#X obj 33 417 list trim;
#X obj 33 389 list prepend symbol;
#X text 2 4 .anchor.;
#X text 164 453 .anchor.;
#X obj 33 64 bng 15 250 50 0 empty empty empty 17 7 0 10 -262144 -1
-1;
#X obj 66 84 + 1;
#X obj 33 84 f 0;
#X obj 33 112 % 10;
#X obj 33 36 inlet;
#X obj 168 154 outlet;
#X connect 0 0 13 0;
#X connect 0 0 26 0;
#X connect 1 0 5 0;
#X connect 2 0 11 1;
#X connect 3 0 11 2;
#X connect 4 0 3 0;
#X connect 5 0 2 0;
#X connect 6 0 11 0;
#X connect 7 0 12 0;
#X connect 8 0 6 0;
#X connect 9 0 8 0;
#X connect 10 0 7 0;
#X connect 11 0 14 0;
#X connect 12 0 1 0;
#X connect 12 1 4 0;
#X connect 13 0 9 0;
#X connect 13 1 10 0;
#X connect 14 0 15 0;
#X connect 15 0 18 0;
#X connect 17 0 16 0;
#X connect 18 0 17 0;
#X connect 21 0 23 0;
#X connect 22 0 23 1;
#X connect 23 0 22 0;
#X connect 23 0 24 0;
#X connect 24 0 0 0;
#X connect 25 0 21 0;
#X restore 39 92 pd filepick;
#X text 391 13 designed by D. Yi @ 2014 fall;
#X obj 228 410 expr sqrt($f1*$f1+$f2*$f2+$f3*$f3);
#X msg 350 329 list /sensor.data x: \$1 y: \$2 z: \$3;
#X msg 328 547 list /xy.scope.data \$1 \$2;
#X obj 365 195 v playspeed_x1;
#X obj 365 141 bng 15 250 50 0 empty empty empty 17 7 0 10 -262144
-1 -1;
#X obj 365 167 metro 200;
#X floatatom 365 223 5 0 0 0 - - -, f 5;
#X obj 410 137 send toGUI;
#X msg 410 109 list /file.num \$1;
#X msg 39 120 read -resize \$1 /playBuf;
#X obj 228 382 / 3.14159;
#X obj 328 382 / 3.14159;
#X obj 429 382 / 3.14159;
#X obj 429 463 + 1;
#X obj 429 491 / 2;
#X obj 328 519 pack f f;
#X text 344 434 gyro roll/pitch/yaw sensor 2-norm;
#X text 269 603 gyro pitch/yaw sensor data graph;
#X connect 0 0 5 0;
#X connect 0 0 11 0;
#X connect 3 0 10 0;
#X connect 5 0 10 1;
#X connect 6 0 8 0;
#X connect 7 0 9 0;
#X connect 8 0 7 0;
#X connect 9 0 12 0;
#X connect 9 0 16 0;
#X connect 10 0 14 0;
#X connect 11 0 6 0;
#X connect 11 1 7 1;
#X connect 14 0 4 0;
#X connect 14 0 4 1;
#X connect 15 0 16 0;
#X connect 16 0 3 0;
#X connect 17 0 15 0;
#X connect 18 0 20 0;
#X connect 19 2 27 0;
#X connect 19 2 21 0;
#X connect 20 0 19 0;
#X connect 21 0 45 0;
#X connect 21 1 46 0;
#X connect 21 2 47 0;
#X connect 22 0 23 0;
#X connect 23 0 3 0;
#X connect 24 0 31 0;
#X connect 24 1 17 0;
#X connect 25 0 23 1;
#X connect 27 0 36 0;
#X connect 28 0 29 0;
#X connect 29 0 50 0;
#X connect 31 0 33 0;
#X connect 32 0 31 0;
#X connect 33 0 44 0;
#X connect 33 1 43 0;
#X connect 35 0 22 0;
#X connect 36 0 26 0;
#X connect 37 0 30 0;
#X connect 38 0 41 0;
#X connect 39 0 40 0;
#X connect 40 0 38 0;
#X connect 43 0 42 0;
#X connect 44 0 0 0;
#X connect 45 0 35 0;
#X connect 46 0 35 1;
#X connect 46 0 28 0;
#X connect 47 0 35 2;
#X connect 47 0 48 0;
#X connect 48 0 49 0;
#X connect 49 0 50 1;
#X connect 50 0 37 0;
