#N canvas 52 99 479 430 10;
#X obj 39 364 textfile;
#X obj 39 69 bng 15 250 50 0 empty reset-all r:reset-all 17 7 0 10
-262144 -1 -1;
#X obj 114 199 until;
#X msg 114 143 10;
#X obj 114 227 f;
#X obj 150 227 + 1;
#X msg 168 188 0;
#X floatatom 114 255 5 0 0 0 - - -, f 5;
#X obj 114 280 * 20;
#X obj 114 171 t a b;
#X msg 39 336 write action-all.pd;
#X msg 190 123 clear \, add #N canvas 0 0 250 300 10 \;;
#X obj 39 95 trigger bang bang bang;
#X text 8 6 .anchor.;
#X text 403 394 .anchor.;
#X text 56 36 reset all!!!;
#N canvas 560 112 716 513 gui 0;
#X obj 38 35 r fromGUI;
#X obj 37 64 route list;
#X obj 37 96 route /btn.reset.all;
#X obj 37 129 route 1 0;
#X obj 283 360 s toGUI;
#X msg 283 332 list /slid.hate.time set \$1;
#X obj 283 281 timer;
#X obj 37 380 delay 5000;
#X msg 117 349 stop;
#X obj 37 460 outlet;
#X obj 283 307 / 5000;
#X obj 315 253 metro 100;
#X msg 355 212 stop;
#X msg 315 212 bang;
#X msg 493 343 list /slid.hate.time set 0;
#X obj 176 397 bng 15 250 50 0 empty empty empty 17 7 0 10 -262144
-1 -1;
#X msg 283 412 list /lbl.reset.stat GAME OVER!;
#X obj 117 195 t b b b;
#X obj 37 264 t b b b;
#X msg 283 442 list /btn.reset.all 0;
#X text 8 3 .anchor.;
#X text 648 483 .anchor.;
#X connect 0 0 1 0;
#X connect 1 0 2 0;
#X connect 2 0 3 0;
#X connect 3 0 18 0;
#X connect 3 1 17 0;
#X connect 5 0 4 0;
#X connect 6 0 10 0;
#X connect 7 0 9 0;
#X connect 7 0 15 0;
#X connect 8 0 7 0;
#X connect 10 0 5 0;
#X connect 11 0 6 1;
#X connect 12 0 11 0;
#X connect 13 0 11 0;
#X connect 14 0 4 0;
#X connect 15 0 16 0;
#X connect 15 0 17 0;
#X connect 15 0 19 0;
#X connect 16 0 4 0;
#X connect 17 0 8 0;
#X connect 17 1 14 0;
#X connect 17 2 12 0;
#X connect 18 0 7 0;
#X connect 18 1 13 0;
#X connect 18 2 6 0;
#X connect 19 0 4 0;
#X restore 258 23 pd gui;
#X obj 258 54 bng 15 250 50 0 empty empty empty 17 7 0 10 -262144 -1
-1;
#X msg 114 308 add #X obj 0 \$1 action-templ2 -1 0 0 0 0 \;;
#X connect 1 0 12 0;
#X connect 2 0 4 0;
#X connect 3 0 9 0;
#X connect 4 0 5 0;
#X connect 4 0 7 0;
#X connect 5 0 4 1;
#X connect 6 0 4 1;
#X connect 7 0 8 0;
#X connect 8 0 18 0;
#X connect 9 0 2 0;
#X connect 9 1 6 0;
#X connect 10 0 0 0;
#X connect 11 0 0 0;
#X connect 12 0 10 0;
#X connect 12 1 3 0;
#X connect 12 2 11 0;
#X connect 16 0 17 0;
#X connect 17 0 1 0;
#X connect 18 0 0 0;
