#N canvas 0 22 1180 626 10;
#X text -54 6 .anchor.;
#X obj -39 148 filepick rec_%s.wav;
#X floatatom -39 123 5 0 0 0 - - -, f 5;
#X floatatom 696 258 5 0 0 1 threshold.dist - -, f 5;
#X obj 200 350 ==;
#X obj 200 378 change;
#X obj -39 67 loadbang;
#X obj -39 95 f \$1;
#X obj 54 67 loadbang;
#X obj 54 95 f \$2;
#X obj 696 67 loadbang;
#X text 1053 592 .anchor.;
#X obj 313 143 action-map-sensor-sel;
#X obj 127 143 action-map-sensor-sel;
#X msg 313 115 10;
#X msg 127 115 11;
#X obj 127 67 loadbang;
#X obj 313 67 loadbang;
#X floatatom 200 171 5 0 0 1 sensor1center - -, f 5;
#X obj 200 67 loadbang;
#X floatatom 383 171 5 0 0 1 sensor2center - -, f 5;
#X obj 383 67 loadbang;
#X obj 383 115 f \$4;
#X obj 127 185 -;
#X obj 313 185 -;
#X obj 127 213 *;
#X obj 313 213 *;
#X obj 200 230 +;
#X floatatom 200 258 5 0 0 1 distance - -, f 5;
#X floatatom 54 503 5 0 0 1 master.vol.max - -, f 5;
#X obj 54 555 *;
#X floatatom 700 461 5 0 0 1 vol:0-1 - -, f 5;
#X obj 700 486 t b a;
#X obj 219 322 min;
#X floatatom 821 285 5 0 0 1 threshold.dist.fading - -, f 5;
#X obj 696 200 t b b;
#X obj 700 311 -;
#X obj 735 339 -;
#X obj 700 339 * -1;
#X obj 700 377 /;
#X obj 700 405 min 1;
#X obj 700 433 max 0;
#X obj 696 283 t a a a;
#X obj 200 294 t a a a;
#X text 111 97 sensor1-yaw;
#X text 297 95 sensor2-pitch;
#X obj 200 115 f \$3;
#X obj 503 143 action-map-sensor-sel;
#X obj 503 67 loadbang;
#X floatatom 573 171 5 0 0 1 sensor3center - -, f 5;
#X obj 573 67 loadbang;
#X obj 503 185 -;
#X text 487 95 sensor3-roll;
#X msg 503 115 9;
#X floatatom 503 213 5 0 0 1 s:0-sensor3delta - #0-sensor3delta, f
5;
#X floatatom 952 454 5 0 0 1 r:0-sensor3delta #0-sensor3delta -, f
5;
#X floatatom 967 123 5 0 0 1 effect.multiflier - -, f 5;
#X obj 967 67 loadbang;
#X obj 952 479 *;
#X obj 952 510 + 1;
#X floatatom 952 541 5 0 0 1 playbackspeed - -, f 5;
#X obj -39 582 soundloop;
#X obj 185 555 *;
#X obj 573 115 f \$5;
#X obj 696 228 f \$6;
#X obj 821 217 f \$7;
#X obj 967 95 f \$8;
#X text 871 25 dooho yi @ dianaband \, 2014 winter;
#X connect 1 0 61 0;
#X connect 2 0 1 0;
#X connect 3 0 42 0;
#X connect 4 0 5 0;
#X connect 5 0 62 1;
#X connect 6 0 7 0;
#X connect 7 0 2 0;
#X connect 8 0 9 0;
#X connect 9 0 29 0;
#X connect 10 0 35 0;
#X connect 12 0 24 0;
#X connect 13 0 23 0;
#X connect 14 0 12 0;
#X connect 15 0 13 0;
#X connect 16 0 15 0;
#X connect 17 0 14 0;
#X connect 18 0 23 1;
#X connect 19 0 46 0;
#X connect 20 0 24 1;
#X connect 21 0 22 0;
#X connect 22 0 20 0;
#X connect 23 0 25 1;
#X connect 23 0 25 0;
#X connect 24 0 26 1;
#X connect 24 0 26 0;
#X connect 25 0 27 0;
#X connect 26 0 27 1;
#X connect 27 0 28 0;
#X connect 28 0 43 0;
#X connect 29 0 30 0;
#X connect 30 0 61 2;
#X connect 31 0 32 0;
#X connect 32 0 29 0;
#X connect 32 1 30 1;
#X connect 33 0 4 1;
#X connect 34 0 37 1;
#X connect 35 0 64 0;
#X connect 35 1 65 0;
#X connect 36 0 38 0;
#X connect 37 0 39 1;
#X connect 38 0 39 0;
#X connect 39 0 40 0;
#X connect 40 0 41 0;
#X connect 41 0 31 0;
#X connect 42 0 33 1;
#X connect 42 1 36 1;
#X connect 42 2 37 0;
#X connect 43 0 4 0;
#X connect 43 1 33 0;
#X connect 43 2 36 0;
#X connect 46 0 18 0;
#X connect 47 0 51 0;
#X connect 48 0 53 0;
#X connect 49 0 51 1;
#X connect 50 0 63 0;
#X connect 51 0 54 0;
#X connect 53 0 47 0;
#X connect 55 0 58 0;
#X connect 56 0 58 1;
#X connect 57 0 66 0;
#X connect 58 0 59 0;
#X connect 59 0 60 0;
#X connect 60 0 62 0;
#X connect 62 0 61 1;
#X connect 63 0 49 0;
#X connect 64 0 3 0;
#X connect 65 0 34 0;
#X connect 66 0 56 0;
