#N canvas 0 22 1085 706 10;
#X text 8 6 .anchor.;
#X text 1010 674 .anchor.;
#X text 880 14 designed by D. Yi @ 2014 fall;
#X obj 32 663 send toGUI;
#X obj 49 463 soundpick;
#X obj 32 55 receive fromGUI;
#X obj 32 77 route list;
#X obj 32 121 route 1 0;
#X obj 32 149 bng 15 250 50 0 empty empty pressed 17 7 0 10 -262144
-1 -1;
#X floatatom 32 439 5 0 0 2 sound_select - -, f 5;
#X obj 57 169 bng 15 250 50 0 empty empty released 17 7 0 10 -262144
-1 -1;
#X text 45 31 push-button;
#X floatatom 100 379 5 0 0 2 volume - -, f 5;
#X floatatom 74 409 5 0 0 2 playback_speed - -, f 5;
#X obj 447 55 receive fromSystem;
#X obj 447 77 list trim;
#X text 458 32 action-data;
#X floatatom 860 178 5 0 0 2 roll - -, f 5;
#X floatatom 912 178 5 0 0 2 pitch - -, f 5;
#X obj 447 99 route /compass /tilts /accel /gyro /motion /shake;
#X obj 860 663 send toGUI;
#X text 65 580 display sth. on GUI;
#X obj 860 141 unpack f f f;
#X floatatom 965 178 5 0 0 2 yaw - -, f 5;
#X text 999 168 -pi ~ +pi;
#X obj 604 137 unpack f f f;
#X floatatom 638 164 5 0 0 0 Y - -, f 5;
#X obj 648 183 + 1;
#X obj 648 205 / 2;
#X msg 860 635 list /gyro.dist set \$1;
#X text 867 450 0 ~ +1;
#X obj 32 99 route /open.next.1 /open.next.2;
#X obj 123 121 route 1 0;
#X obj 123 149 bng 15 250 50 0 empty empty pressed 17 7 0 10 -262144
-1 -1;
#X obj 148 169 bng 15 250 50 0 empty empty released 17 7 0 10 -262144
-1 -1;
#X obj 140 553 soundpick;
#X floatatom 123 529 5 0 0 2 sound_select - -, f 5;
#X floatatom 191 469 5 0 0 2 volume - -, f 5;
#X floatatom 165 499 5 0 0 2 playback_speed - -, f 5;
#X msg 32 635 list /file.num.1 \$1;
#X msg 123 607 list /file.num.2 \$1;
#X obj 65 217 + 1;
#X floatatom 32 246 5 0 0 0 - - -, f 5;
#X obj 32 271 % 10;
#X obj 32 217 f 0;
#X obj 156 217 + 1;
#X floatatom 123 246 5 0 0 0 - - -, f 5;
#X obj 123 271 % 10;
#X obj 123 217 f 0;
#X obj 860 239 expr (abs($f1/3.141592)+abs($f2/3.141592)+abs($f3/3.141592))/3
, f 18;
#X floatatom 860 328 5 0 0 1 gyro.dist - -, f 5;
#X msg 658 635 list /event.1 set \$1;
#X text 353 393 0 or 1;
#X text 673 163 -1 ~ +1;
#X obj 447 180 / 360;
#X floatatom 447 154 5 0 0 1 degree - -, f 5;
#X msg 456 203 list /compass set \$1;
#X msg 648 227 list /accel.y set \$1;
#X text 382 178 0 ~ +1;
#X obj 658 663 send toGUI;
#X msg 638 607 list /event.2 set \$1;
#X obj 648 249 send toGUI;
#X obj 456 225 send toGUI;
#X text 646 320 -1 ~ +1;
#X text 443 503 0 or 1;
#X text 655 580 display sth. on GUI;
#X text 875 580 display sth. on GUI;
#X obj 262 281 soundpick;
#X floatatom 245 257 5 0 0 2 sound_select - -, f 5;
#X floatatom 313 197 5 0 0 2 volume - -, f 5;
#X floatatom 287 227 5 0 0 2 playback_speed - -, f 5;
#X obj 447 247 expr (1-$f1);
#X obj 74 335 init 1;
#X obj 165 427 init 1;
#X obj 245 151 init 3;
#X obj 287 151 init 1;
#X text 389 199 (a);
#X text 436 276 (1 - a);
#X text 645 439 umbrella stand up;
#X text 466 326 0 or 1;
#X text 402 248 0 ~ +1;
#X text 828 369 umbrella spinning;
#X obj 638 482 < -0.5;
#X obj 798 392 > 0.5;
#X connect 5 0 6 0;
#X connect 6 0 31 0;
#X connect 7 0 8 0;
#X connect 7 1 10 0;
#X connect 8 0 44 0;
#X connect 9 0 4 0;
#X connect 9 0 39 0;
#X connect 12 0 4 2;
#X connect 13 0 4 1;
#X connect 14 0 15 0;
#X connect 15 0 19 0;
#X connect 17 0 49 0;
#X connect 18 0 49 1;
#X connect 19 0 55 0;
#X connect 19 2 25 0;
#X connect 19 3 22 0;
#X connect 22 0 17 0;
#X connect 22 1 18 0;
#X connect 22 2 23 0;
#X connect 23 0 49 2;
#X connect 25 1 26 0;
#X connect 26 0 27 0;
#X connect 26 0 82 0;
#X connect 27 0 28 0;
#X connect 28 0 57 0;
#X connect 29 0 20 0;
#X connect 31 0 7 0;
#X connect 31 1 32 0;
#X connect 32 0 33 0;
#X connect 32 1 34 0;
#X connect 33 0 48 0;
#X connect 36 0 35 0;
#X connect 36 0 40 0;
#X connect 37 0 35 2;
#X connect 38 0 35 1;
#X connect 39 0 3 0;
#X connect 40 0 3 0;
#X connect 41 0 44 1;
#X connect 42 0 43 0;
#X connect 43 0 9 0;
#X connect 44 0 41 0;
#X connect 44 0 42 0;
#X connect 45 0 48 1;
#X connect 46 0 47 0;
#X connect 47 0 36 0;
#X connect 48 0 45 0;
#X connect 48 0 46 0;
#X connect 49 0 50 0;
#X connect 50 0 29 0;
#X connect 50 0 83 0;
#X connect 51 0 59 0;
#X connect 54 0 56 0;
#X connect 54 0 69 0;
#X connect 54 0 71 0;
#X connect 55 0 54 0;
#X connect 56 0 62 0;
#X connect 57 0 61 0;
#X connect 60 0 59 0;
#X connect 68 0 67 0;
#X connect 69 0 67 2;
#X connect 70 0 67 1;
#X connect 71 0 37 0;
#X connect 72 0 13 0;
#X connect 72 0 12 0;
#X connect 73 0 38 0;
#X connect 73 0 37 0;
#X connect 74 0 68 0;
#X connect 75 0 70 0;
#X connect 82 0 38 0;
#X connect 82 0 60 0;
#X connect 82 0 70 0;
#X connect 83 0 51 0;
#X connect 83 0 13 0;
