#N canvas 70 22 1248 705 10;
#X text 8 6 .anchor.;
#X text 1017 658 .anchor.;
#X obj 338 39 receive fromSystem;
#X obj 338 67 list trim;
#X obj 1006 324 send toGUI;
#N canvas 0 22 834 545 speedlim 0;
#X msg 83 139 1;
#X obj 57 164 spigot 1;
#X obj 87 93 t b b;
#X msg 112 139 0;
#X obj 85 115 delay 200;
#X obj 60 49 inlet;
#X obj 59 213 outlet;
#X connect 0 0 1 1;
#X connect 1 0 2 0;
#X connect 1 0 6 0;
#X connect 2 0 4 0;
#X connect 2 1 3 0;
#X connect 3 0 1 1;
#X connect 4 0 0 0;
#X connect 5 0 1 0;
#X restore 1006 274 pd speedlim;
#X obj 404 559 send toGUI;
#X text 364 13 designed by D. Yi @ 2014 fall;
#X msg 404 531 list /xy.scope.data \$1 \$2;
#X obj 39 553 send toGUI;
#X msg 39 525 list /file.num \$1;
#X text 514 315 compass sensor 2-norm;
#X msg 1006 300 list /sensor.data x: \$1 deg;
#X obj 692 172 receive fromSystem;
#X obj 692 200 list trim;
#X obj 804 321 send toGUI;
#N canvas 388 273 158 260 speedlim 0;
#X msg 67 125 1;
#X obj 22 153 spigot 1;
#X obj 67 69 t b b;
#X msg 94 125 0;
#X obj 67 97 delay 200;
#X obj 22 38 inlet;
#X obj 22 202 outlet;
#X text 7 9 .anchor.;
#X text 87 228 .anchor.;
#X connect 0 0 1 1;
#X connect 1 0 2 0;
#X connect 1 0 6 0;
#X connect 2 0 4 0;
#X connect 2 1 3 0;
#X connect 3 0 1 1;
#X connect 4 0 0 0;
#X connect 5 0 1 0;
#X restore 804 271 pd speedlim;
#X text 858 358 compass sensor 2-norm;
#X obj 692 228 route /tilts /accel /gyro /motion /accelFrequency /gyroFrequency
/motionFrequency;
#X msg 804 297 list /sensor.data x: \$1 y: \$2;
#X obj 692 519 expr pow(pow($f1 \, $f3)+pow($f2 \, $f3) \, 1/$f3);
#X obj 892 414 hradio 15 1 0 5 empty empty empty 0 -8 0 10 -262144
-1 -1 0;
#X floatatom 892 488 5 0 0 0 - - -, f 5;
#X obj 892 437 * 2;
#X obj 892 462 + 2;
#X obj 992 414 hradio 15 1 0 5 empty empty empty 0 -8 0 10 -262144
-1 -1 0;
#X floatatom 992 488 5 0 0 0 - - -, f 5;
#X obj 992 437 * 2;
#X text 888 393 even;
#X text 991 394 odd;
#X obj 992 462 + 1;
#X obj 692 327 unpack f f;
#X floatatom 379 437 5 0.1 10 1 playspeed_variation_range - -, f 5
;
#X obj 364 463 *;
#X obj 690 608 min;
#X floatatom 757 633 5 0 0 0 - - -, f 5;
#X obj 757 605 v \$0-playspeed_x1;
#X obj 762 569 bng 15 250 50 0 empty empty empty 17 7 0 10 -262144
-1 -1;
#X obj 34 351 soundpick;
#X obj 117 351 soundpick;
#X obj 34 38 receive fromGUI;
#X obj 34 60 route list;
#X obj 149 55 print fromGUI;
#X obj 200 110 tgl 15 0 \$0-sensor.tgl empty s:0-sensor.tgl 17 7 0
10 -262144 -1 -1 0 1;
#X obj 34 82 route /open.next /playspeed.x1 /sensor.tgl;
#X obj 117 110 route 1 0;
#X obj 34 110 route 1 0;
#X obj 34 260 f;
#X obj 70 259 + 1;
#X floatatom 34 289 5 0 0 0 - - -, f 5;
#X obj 338 288 bng 15 250 50 0 empty empty empty 17 7 0 10 -262144
-1 -1;
#X obj 117 260 f;
#X obj 153 259 + 1;
#X floatatom 117 289 5 0 0 0 - - -, f 5;
#X msg 206 334 1;
#X msg 232 207 1;
#X msg 259 334 0;
#X obj 377 288 bng 15 250 50 0 empty empty empty 17 7 0 10 -262144
-1 -1;
#X text 261 208 volume;
#X obj 338 260 route 1;
#X obj 386 195 *;
#X text 495 155 -3.14159 ~ +3.141592;
#X obj 483 185 / 3.14159;
#X obj 483 249 *;
#X text 495 217 0 ~ 1;
#X text 394 165 -1 ~ 1;
#X obj 338 95 route /compass /tilts /accel /gyro /motion /shake;
#X obj 629 131 route 1;
#X obj 483 122 unpack f f f;
#X obj 338 232 >;
#X obj 349 360 +;
#X msg 387 339 message;
#X msg 396 375 2;
#X obj 344 391 >;
#X obj 290 384 route;
#X obj 52 213 bng 15 250 50 0 empty empty empty 17 7 0 10 -262144 -1
-1;
#X obj 109 197 bng 15 250 50 0 empty empty empty 17 7 0 10 -262144
-1 -1;
#X msg 75 317 10;
#X obj 554 254 resample 200;
#X connect 2 0 3 0;
#X connect 3 0 66 0;
#X connect 5 0 12 0;
#X connect 8 0 6 0;
#X connect 10 0 9 0;
#X connect 12 0 4 0;
#X connect 13 0 14 0;
#X connect 14 0 18 0;
#X connect 16 0 19 0;
#X connect 18 0 16 0;
#X connect 18 0 31 0;
#X connect 19 0 15 0;
#X connect 21 0 23 0;
#X connect 22 0 20 2;
#X connect 23 0 24 0;
#X connect 24 0 22 0;
#X connect 25 0 27 0;
#X connect 26 0 20 2;
#X connect 27 0 30 0;
#X connect 30 0 26 0;
#X connect 31 0 20 0;
#X connect 31 1 20 1;
#X connect 32 0 33 1;
#X connect 36 0 35 0;
#X connect 37 0 36 0;
#X connect 40 0 41 0;
#X connect 40 0 42 0;
#X connect 41 0 44 0;
#X connect 44 0 46 0;
#X connect 44 1 45 0;
#X connect 44 2 43 0;
#X connect 45 0 51 0;
#X connect 46 0 47 0;
#X connect 47 0 48 0;
#X connect 47 0 49 0;
#X connect 48 0 47 1;
#X connect 49 0 38 0;
#X connect 50 0 54 0;
#X connect 51 0 52 0;
#X connect 51 0 53 0;
#X connect 52 0 51 1;
#X connect 53 0 39 0;
#X connect 54 0 39 1;
#X connect 55 0 39 2;
#X connect 56 0 39 1;
#X connect 57 0 56 0;
#X connect 59 0 50 0;
#X connect 59 1 57 0;
#X connect 62 0 63 0;
#X connect 66 0 5 0;
#X connect 66 0 69 0;
#X connect 66 1 60 0;
#X connect 66 3 68 0;
#X connect 66 6 67 0;
#X connect 67 0 55 0;
#X connect 68 0 62 0;
#X connect 69 0 59 0;
#X connect 75 0 47 0;
#X connect 76 0 51 0;
#X connect 77 0 38 2;
