#N canvas 246 22 646 699 10;
#X obj 450 577 dac~;
#X obj 205 347 tgl 15 0 empty empty empty 17 7 0 10 -262144 -1 -1 1
1;
#N canvas 704 155 279 591 writesf~.open.a.new.file 0;
#X text 2 4 .anchor.;
#X text 213 561 .anchor.;
#X obj 32 68 bng 15 250 50 0 empty empty empty 17 7 0 10 -262144 -1
-1;
#X obj 65 88 + 1;
#X floatatom 32 110 5 0 0 0 - - -, f 5;
#X obj 83 224 / 10;
#X floatatom 83 268 5 0 0 0 - - -, f 5;
#X floatatom 128 246 5 0 0 0 - - -, f 5;
#X obj 128 224 % 10;
#X obj 83 246 int;
#X floatatom 32 205 5 0 0 0 - - -, f 5;
#X floatatom 83 183 5 0 0 0 - - -, f 5;
#X obj 32 183 int;
#X obj 32 161 / 100;
#X obj 83 161 % 100;
#X obj 32 36 inlet;
#X obj 32 417 list append;
#X msg 32 505 open rec_001.wav;
#X obj 32 439 list prepend set;
#X obj 32 461 list trim;
#X obj 32 483 t b a;
#X obj 32 537 outlet;
#X obj 32 88 f 0;
#X obj 32 287 pack f f f;
#X obj 83 202 t a a;
#X obj 32 139 t a a;
#X msg 32 309 symbol \$1\$2\$3;
#X obj 32 331 makefilename rec_%s.wav;
#X msg 32 395 open;
#X obj 147 472 outlet;
#X obj 32 373 t b a a;
#X obj 147 444 list trim;
#X obj 147 390 list prepend symbol;
#X obj 147 416 list prepend set;
#X obj 167 36 inlet;
#X obj 167 95 bng 15 250 50 0 empty empty empty 17 7 0 10 -262144 -1
-1;
#X connect 2 0 22 0;
#X connect 3 0 22 1;
#X connect 4 0 25 0;
#X connect 5 0 9 0;
#X connect 6 0 23 1;
#X connect 7 0 23 2;
#X connect 8 0 7 0;
#X connect 9 0 6 0;
#X connect 10 0 23 0;
#X connect 11 0 24 0;
#X connect 12 0 10 0;
#X connect 13 0 12 0;
#X connect 14 0 11 0;
#X connect 15 0 2 0;
#X connect 16 0 18 0;
#X connect 17 0 21 0;
#X connect 18 0 19 0;
#X connect 19 0 20 0;
#X connect 20 0 17 0;
#X connect 20 1 17 0;
#X connect 22 0 3 0;
#X connect 22 0 4 0;
#X connect 23 0 26 0;
#X connect 24 0 5 0;
#X connect 24 1 8 0;
#X connect 25 0 13 0;
#X connect 25 1 14 0;
#X connect 26 0 27 0;
#X connect 27 0 30 0;
#X connect 28 0 16 0;
#X connect 30 0 28 0;
#X connect 30 1 16 1;
#X connect 30 2 32 0;
#X connect 31 0 29 0;
#X connect 32 0 33 0;
#X connect 33 0 31 0;
#X connect 34 0 35 0;
#X connect 35 0 4 0;
#X restore 91 207 pd writesf~.open.a.new.file;
#X obj 102 232 print [to.writesf~];
#X text 574 669 .anchor.;
#X obj 487 496 bng 15 250 50 0 empty \$0-preview-stop r:0-preview-stop
17 7 0 10 -262144 -1 -1;
#X text 9 83 - - - - - - - - - - - - - - - - - - - - - - - - - - -
- - -;
#X text 433 10 designed by D. Yi @ 2014 fall;
#X text 8 8 .anchor.;
#N canvas 176 22 450 433 menu.and.commands 0;
#X obj 20 184 receive fromGUI;
#X obj 20 206 route list;
#X obj 20 272 bng 15 250 50 0 \$0-create-new empty s:0-create-new 17
7 0 10 -262144 -1 -1;
#X obj 20 116 send toGUI;
#X obj 20 60 loadbang;
#X obj 20 250 route 0;
#X text 19 30 menu items init.;
#X text 83 249 0: create a new file;
#X obj 274 341 bng 15 250 50 0 \$0-preview-start empty s:0-preview-start
17 7 0 10 -262144 -1 -1;
#X text 378 399 .anchor.;
#X text 5 2 .anchor.;
#X obj 174 367 bng 15 250 50 0 \$0-stop empty s:0-stop 17 7 0 10 -262144
-1 -1;
#X obj 149 341 bng 15 250 50 0 \$0-start empty s:0-start 17 7 0 10
-262144 -1 -1;
#X obj 149 313 route 1 0;
#X obj 135 201 print fromGUI;
#X msg 20 88 list /menu.cmd new.sound!;
#X obj 274 313 route 1 0;
#X obj 299 367 bng 15 250 50 0 \$0-preview-stop empty s:0-preview-stop
17 7 0 10 -262144 -1 -1;
#X obj 20 228 route /menu.cmd /rec-on-tgl /rec-on-hold /preview.tgl
;
#X connect 0 0 1 0;
#X connect 0 0 14 0;
#X connect 1 0 18 0;
#X connect 4 0 15 0;
#X connect 5 0 2 0;
#X connect 13 0 12 0;
#X connect 13 1 11 0;
#X connect 15 0 3 0;
#X connect 16 0 8 0;
#X connect 16 1 17 0;
#X connect 18 0 5 0;
#X connect 18 1 13 0;
#X connect 18 2 13 0;
#X connect 18 3 16 0;
#X restore 44 47 pd menu.and.commands;
#X obj 91 257 writesf~;
#X obj 43 364 adc~;
#X obj 91 181 bng 15 250 50 0 empty \$0-create-new r:0-create-new 17
7 0 10 -262144 -1 -1;
#X obj 205 373 metro 200;
#X obj 205 319 loadbang;
#X obj 43 390 tabwrite~ /monitoringBuf;
#X obj 274 373 table /monitoringBuf 8820;
#X obj 205 429 send toGUI;
#X msg 205 401 list /monitoringBuf refresh;
#X obj 270 579 send toGUI;
#X msg 277 240 start;
#X msg 356 240 stop;
#X obj 356 214 bng 15 250 50 0 empty \$0-stop r:0-stop 17 7 0 10 -262144
-1 -1;
#X obj 334 119 bng 15 250 50 0 empty \$0-start r:0-start 17 7 0 10
-262144 -1 -1;
#X obj 46 240 adc~;
#X obj 270 495 delay 100;
#X obj 270 469 bng 15 250 50 0 empty \$0-stop r:0-stop 17 7 0 10 -262144
-1 -1;
#N canvas 0 22 450 278 (subpatch) 0;
#X array /previewBuf 109760 float 2;
#X coords 0 1 109760 -1 200 50 1 0 0;
#X restore 43 610 graph;
#X obj 43 568 soundfiler;
#X msg 43 512 symbol rec_001.wav;
#X msg 43 540 read -resize \$1 /previewBuf;
#X msg 270 551 list /previewBuf refresh;
#X obj 250 275 s preview.filename.symbol;
#X obj 43 484 r preview.filename.symbol;
#X obj 270 523 delay 100;
#X obj 450 549 tabplay~ /previewBuf;
#X msg 450 521 0;
#X obj 450 475 bng 15 250 50 0 empty \$0-preview-start r:0-preview-start
17 7 0 10 -262144 -1 -1;
#X msg 487 522 stop;
#X obj 450 643 send toGUI;
#X msg 450 615 list /preview.tgl 0;
#X obj 475 275 v is.overwriting;
#X obj 475 219 loadbang;
#X msg 475 247 0;
#X obj 475 193 bng 15 250 50 0 empty \$0-create-new r:0-create-new
17 7 0 10 -262144 -1 -1;
#X obj 334 145 v is.overwriting;
#X obj 334 173 sel 0;
#X obj 277 190 t b b;
#X msg 548 247 1;
#X obj 548 221 bng 15 250 50 0 empty \$0-stop r:0-stop 17 7 0 10 -262144
-1 -1;
#X obj 475 311 tgl 15 0 empty empty empty 17 7 0 10 -262144 -1 -1 0
1;
#X obj 475 365 v is.overwriting;
#X floatatom 475 393 5 0 0 0 - - -, f 5;
#X obj 475 337 metro 100;
#X obj 92 109 text;
#X obj 92 137 textfile;
#X obj 155 137 qlist;
#X text 127 110 pd vanilla only;
#X text 197 137 also pd-extended;
#X connect 1 0 13 0;
#X connect 2 0 3 0;
#X connect 2 0 10 0;
#X connect 2 1 32 0;
#X connect 5 0 38 0;
#X connect 11 0 15 0;
#X connect 12 0 2 0;
#X connect 13 0 15 0;
#X connect 13 0 18 0;
#X connect 14 0 1 0;
#X connect 18 0 17 0;
#X connect 20 0 10 0;
#X connect 21 0 10 0;
#X connect 22 0 21 0;
#X connect 23 0 45 0;
#X connect 24 0 10 0;
#X connect 25 0 29 0;
#X connect 25 0 34 0;
#X connect 26 0 25 0;
#X connect 29 0 30 0;
#X connect 30 0 28 0;
#X connect 31 0 19 0;
#X connect 33 0 29 0;
#X connect 34 0 31 0;
#X connect 35 0 0 0;
#X connect 35 0 0 1;
#X connect 35 1 40 0;
#X connect 36 0 35 0;
#X connect 37 0 36 0;
#X connect 38 0 35 0;
#X connect 40 0 39 0;
#X connect 42 0 43 0;
#X connect 43 0 41 0;
#X connect 44 0 43 0;
#X connect 45 0 46 0;
#X connect 46 0 20 0;
#X connect 46 1 47 0;
#X connect 47 0 20 0;
#X connect 47 1 2 1;
#X connect 48 0 41 0;
#X connect 49 0 48 0;
#X connect 50 0 53 0;
#X connect 51 0 52 0;
#X connect 53 0 51 0;
