#N canvas 282 141 460 417 10;
#X msg 157 220 test.pd;
#X obj 24 286 symbol;
#X obj 24 308 makefilename pd-%s;
#X msg 24 330 \; \$1 menuclose \;;
#X obj 157 264 symbol;
#X msg 157 286 \; pd open \$1 /storage/sdcard0/MobMuPlat;
#X msg 157 327 \; pd open \$1 /Users/doohoyi/Sites/pub/123-action;
#X obj 18 28 receive fromGUI;
#X obj 18 50 route list;
#X obj 133 45 print fromGUI;
#X obj 18 72 route /open /close;
#X obj 18 109 route 1 0;
#X obj 98 129 route 1 0;
#X obj 24 229 bng 15 250 50 0 empty empty empty 17 7 0 10 -262144 -1
-1;
#X connect 0 0 4 0;
#X connect 1 0 2 0;
#X connect 2 0 3 0;
#X connect 4 0 5 0;
#X connect 4 0 1 1;
#X connect 4 0 6 0;
#X connect 7 0 8 0;
#X connect 7 0 9 0;
#X connect 8 0 10 0;
#X connect 10 0 11 0;
#X connect 10 1 12 0;
#X connect 11 0 0 0;
#X connect 12 0 13 0;
#X connect 13 0 1 0;
