#N canvas 185 17 893 707 10;
#X obj 39 454 textfile;
#X obj 39 159 bng 15 250 50 0 empty empty empty 17 7 0 10 -262144 -1
-1;
#X text 56 136 create a file;
#X obj 553 501 textfile;
#X text 506 30 modify a single line (nth) in a file;
#X obj 553 660 textfile;
#X obj 553 585 list trim;
#X obj 553 557 list prepend add;
#X obj 498 228 f;
#X obj 534 228 + 1;
#X msg 560 174 0;
#X floatatom 498 256 5 0 0 0 - - -;
#X obj 530 337 sel;
#X obj 498 202 bng 15 250 50 0 empty empty empty 17 7 0 10 -262144
-1 -1;
#X obj 590 365 bng 15 250 50 0 empty empty empty 17 7 0 10 -262144
-1 -1;
#X obj 530 365 bng 15 250 50 0 empty empty empty 17 7 0 10 -262144
-1 -1;
#X obj 498 174 until;
#X msg 498 118 10;
#X obj 498 65 bng 15 250 50 0 empty empty empty 17 7 0 10 -262144 -1
-1;
#X obj 498 337 sel;
#X obj 498 365 bng 15 250 50 0 empty empty empty 17 7 0 10 -262144
-1 -1;
#X obj 114 289 until;
#X msg 114 233 10;
#X obj 114 317 f;
#X obj 150 317 + 1;
#X msg 168 278 0;
#X floatatom 114 345 5 0 0 0 - - -;
#X obj 114 370 * 20;
#X obj 114 261 t a b;
#X msg 114 398 add #X obj 0 \$1 action-templ 0 0 0 0 0 \;;
#X msg 39 426 write action-all.pd;
#X msg 498 613 write action-all.pd;
#X obj 498 146 t a a;
#X msg 190 213 clear \, add #N canvas 0 0 250 300 10 \;;
#X obj 39 185 trigger bang bang bang;
#X obj 498 281 t a a;
#X msg 622 174 read action-all.pd \, rewind \, bang;
#X msg 716 643 clear;
#X obj 498 91 trigger bang bang bang bang;
#X obj 498 309 + 1;
#X obj 553 529 spigot;
#X obj 622 501 tgl 15 0 empty empty empty 17 7 0 10 -262144 -1 -1 1
1;
#X msg 622 473 1;
#X msg 576 473 0;
#X obj 590 400 t b b;
#X obj 530 400 t b b b;
#X obj 684 456 t b b;
#X text 6 4 .anchor.;
#X text 814 677 .anchor.;
#X msg 580 320 7;
#X msg 530 428 #X obj 0 200 hi \;;
#X text 624 319 <-- line # to be changed!;
#X text 661 427 <-- new content for that line!;
#X connect 1 0 34 0;
#X connect 3 0 40 0;
#X connect 6 0 5 0;
#X connect 7 0 6 0;
#X connect 8 0 9 0;
#X connect 8 0 11 0;
#X connect 9 0 8 1;
#X connect 10 0 8 1;
#X connect 11 0 35 0;
#X connect 12 0 15 0;
#X connect 12 1 14 0;
#X connect 13 0 8 0;
#X connect 14 0 44 0;
#X connect 15 0 45 0;
#X connect 16 0 13 0;
#X connect 17 0 32 0;
#X connect 18 0 38 0;
#X connect 19 0 20 0;
#X connect 20 0 31 0;
#X connect 21 0 23 0;
#X connect 22 0 28 0;
#X connect 23 0 24 0;
#X connect 23 0 26 0;
#X connect 24 0 23 1;
#X connect 25 0 23 1;
#X connect 26 0 27 0;
#X connect 27 0 29 0;
#X connect 28 0 21 0;
#X connect 28 1 25 0;
#X connect 29 0 0 0;
#X connect 30 0 0 0;
#X connect 31 0 5 0;
#X connect 32 0 16 0;
#X connect 32 1 19 1;
#X connect 33 0 0 0;
#X connect 34 0 30 0;
#X connect 34 1 22 0;
#X connect 34 2 33 0;
#X connect 35 0 39 0;
#X connect 35 1 12 0;
#X connect 36 0 3 0;
#X connect 37 0 5 0;
#X connect 38 0 17 0;
#X connect 38 1 10 0;
#X connect 38 2 36 0;
#X connect 38 3 46 0;
#X connect 39 0 19 0;
#X connect 40 0 7 0;
#X connect 41 0 40 1;
#X connect 42 0 41 0;
#X connect 43 0 41 0;
#X connect 44 0 3 0;
#X connect 44 1 42 0;
#X connect 45 0 50 0;
#X connect 45 1 3 0;
#X connect 45 2 43 0;
#X connect 46 0 42 0;
#X connect 46 1 37 0;
#X connect 49 0 12 1;
#X connect 50 0 7 0;
