#N canvas 5 22 826 571 10;
#X obj 21 172 soundfiler;
#X text -2 6 .anchor.;
#X obj 21 527 dac~;
#X floatatom 520 189 12 0 0 3 samplesize - -;
#N canvas 560 88 241 414 filepick 0;
#X floatatom 33 60 5 0 0 0 - - -;
#X obj 84 174 / 10;
#X floatatom 84 218 5 0 0 0 - - -;
#X floatatom 129 196 5 0 0 0 - - -;
#X obj 129 174 % 10;
#X obj 84 196 int;
#X floatatom 33 155 5 0 0 0 - - -;
#X floatatom 84 133 5 0 0 0 - - -;
#X obj 33 133 int;
#X obj 33 111 / 100;
#X obj 84 111 % 100;
#X obj 33 237 pack f f f;
#X obj 84 152 t a a;
#X obj 33 89 t a a;
#X msg 33 259 symbol \$1\$2\$3;
#X obj 33 281 makefilename rec_%s.wav;
#X obj 33 365 outlet;
#X obj 33 337 list trim;
#X obj 33 309 list prepend symbol;
#X text 2 4 .anchor.;
#X obj 33 32 inlet;
#X text 164 373 .anchor.;
#X text 83 86 some fancy file naming;
#X connect 0 0 13 0;
#X connect 1 0 5 0;
#X connect 2 0 11 1;
#X connect 3 0 11 2;
#X connect 4 0 3 0;
#X connect 5 0 2 0;
#X connect 6 0 11 0;
#X connect 7 0 12 0;
#X connect 8 0 6 0;
#X connect 9 0 8 0;
#X connect 10 0 7 0;
#X connect 11 0 14 0;
#X connect 12 0 1 0;
#X connect 12 1 4 0;
#X connect 13 0 9 0;
#X connect 13 1 10 0;
#X connect 14 0 15 0;
#X connect 15 0 18 0;
#X connect 17 0 16 0;
#X connect 18 0 17 0;
#X connect 20 0 0 0;
#X restore 21 73 pd filepick;
#X text 240 12 designed by D. Yi @ 2014 fall;
#X obj 21 45 inlet;
#X obj 141 73 loadbang;
#X obj 194 144 table \$0-playBuf 8820;
#X obj 21 459 tabread~ \$0-playBuf;
#X obj 634 333 inlet;
#X obj 21 499 *~;
#X obj 51 499 *~;
#X obj 700 482 inlet;
#X text 758 535 .anchor.;
#X obj 21 114 pack s f;
#X msg 21 144 read -resize \$1 \$2-playBuf;
#X text 62 47 1-select # of sound;
#X text 675 504 3-volume;
#X obj 141 97 f \$0;
#X obj 431 426 vline~;
#X obj 524 228 samplerate~;
#X obj 509 281 /;
#X floatatom 524 256 7 0 0 1 samplerate - -;
#X obj 509 309 * 1000;
#X obj 464 337 pack f f;
#X obj 464 200 t a a b;
#X msg 464 365 set \$1 \$2;
#X msg 464 393 119296 2705.12;
#X msg 431 393 0 0;
#X obj 574 376 t b b;
#X obj 634 361 bng 15 250 50 0 empty empty empty 17 7 0 10 -262144
-1 -1;
#X text 679 334 2-play shot : bang;
#X obj 21 403 phasor~;
#X obj 21 228 samplerate~;
#X obj 21 291 /;
#X floatatom 21 256 7 0 0 1 samplerate - -;
#X floatatom 21 319 5 0 0 1 playback_speed_x1 - -;
#X obj 21 431 *~;
#X floatatom 21 378 5 0 0 0 - - -;
#X obj 234 416 metro 200;
#X floatatom 234 472 5 0 0 0 - - -;
#X obj 234 444 v \$0-playspeed_x1;
#X obj 32 342 v \$0-playspeed_x1;
#X obj 255 344 v \$0-playspeed_x1;
#X obj 228 288 inlet;
#X obj 228 361 *;
#X text 273 289 2-play speed : 1 for x1;
#X obj 228 316 t a b;
#X obj 234 390 tgl 15 0 empty empty empty 17 7 0 10 -262144 -1 -1 0
1;
#X obj 21 200 t b a;
#X floatatom 110 189 12 0 0 3 samplesize - -;
#X obj 431 527 dac~;
#X obj 431 459 tabread~ \$0-playBuf;
#X obj 431 499 *~;
#X obj 461 499 *~;
#X connect 0 0 26 0;
#X connect 0 0 3 0;
#X connect 0 0 50 0;
#X connect 0 0 51 0;
#X connect 4 0 15 0;
#X connect 6 0 4 0;
#X connect 7 0 19 0;
#X connect 9 0 11 0;
#X connect 9 0 12 0;
#X connect 10 0 31 0;
#X connect 11 0 2 0;
#X connect 12 0 2 1;
#X connect 13 0 11 1;
#X connect 13 0 12 1;
#X connect 15 0 16 0;
#X connect 16 0 0 0;
#X connect 19 0 15 1;
#X connect 20 0 53 0;
#X connect 21 0 23 0;
#X connect 22 0 24 0;
#X connect 23 0 22 1;
#X connect 24 0 25 1;
#X connect 25 0 27 0;
#X connect 26 0 25 0;
#X connect 26 1 22 0;
#X connect 26 2 21 0;
#X connect 27 0 28 0;
#X connect 28 0 20 0;
#X connect 29 0 20 0;
#X connect 30 0 28 0;
#X connect 30 1 29 0;
#X connect 31 0 30 0;
#X connect 33 0 38 0;
#X connect 34 0 36 0;
#X connect 35 0 37 0;
#X connect 36 0 35 0;
#X connect 37 0 39 0;
#X connect 37 0 43 0;
#X connect 38 0 9 0;
#X connect 39 0 33 0;
#X connect 40 0 42 0;
#X connect 42 0 41 0;
#X connect 44 0 46 1;
#X connect 45 0 48 0;
#X connect 46 0 39 0;
#X connect 48 0 46 0;
#X connect 48 1 44 0;
#X connect 49 0 40 0;
#X connect 50 0 34 0;
#X connect 50 1 35 1;
#X connect 51 0 38 1;
#X connect 53 0 54 0;
#X connect 53 0 55 0;
#X connect 54 0 52 0;
#X connect 55 0 52 1;
