#N canvas 428 64 443 286 10;
#X obj 79 218 print [to.writesf~];
#X text 376 256 .anchor.;
#X text 242 12 designed by D. Yi @ 2014 fall;
#X text 8 8 .anchor.;
#X obj 62 246 writesf~;
#X msg 222 229 start;
#X msg 267 229 stop;
#X obj 17 229 adc~;
#X msg 62 191 open \$1;
#X msg 62 163 symbol rec_000.wav;
#X obj 222 146 t b b;
#X msg 62 135 set symbol \$1;
#N canvas 569 42 241 414 filepick 0;
#X floatatom 33 60 5 0 0 0 - - -;
#X obj 84 174 / 10;
#X floatatom 84 218 5 0 0 0 - - -;
#X floatatom 129 196 5 0 0 0 - - -;
#X obj 129 174 % 10;
#X obj 84 196 int;
#X floatatom 33 155 5 0 0 0 - - -;
#X floatatom 84 133 5 0 0 0 - - -;
#X obj 33 133 int;
#X obj 33 111 / 100;
#X obj 84 111 % 100;
#X obj 33 237 pack f f f;
#X obj 84 152 t a a;
#X obj 33 89 t a a;
#X msg 33 259 symbol \$1\$2\$3;
#X obj 33 281 makefilename rec_%s.wav;
#X obj 33 365 outlet;
#X obj 33 337 list trim;
#X obj 33 309 list prepend symbol;
#X text 2 4 .anchor.;
#X obj 33 32 inlet;
#X text 164 373 .anchor.;
#X text 83 86 some fancy file naming;
#X connect 0 0 13 0;
#X connect 1 0 5 0;
#X connect 2 0 11 1;
#X connect 3 0 11 2;
#X connect 4 0 3 0;
#X connect 5 0 2 0;
#X connect 6 0 11 0;
#X connect 7 0 12 0;
#X connect 8 0 6 0;
#X connect 9 0 8 0;
#X connect 10 0 7 0;
#X connect 11 0 14 0;
#X connect 12 0 1 0;
#X connect 12 1 4 0;
#X connect 13 0 9 0;
#X connect 13 1 10 0;
#X connect 14 0 15 0;
#X connect 15 0 18 0;
#X connect 17 0 16 0;
#X connect 18 0 17 0;
#X connect 20 0 0 0;
#X restore 62 92 pd filepick;
#X obj 62 44 inlet;
#X text 68 67 1-select # of sound;
#X obj 222 44 inlet;
#X obj 222 92 tgl 15 0 empty empty empty 17 7 0 10 -262144 -1 -1 0
1;
#X text 228 67 2-recording start/stop tgl;
#X obj 222 118 route 1 0;
#X connect 5 0 4 0;
#X connect 6 0 4 0;
#X connect 7 0 4 0;
#X connect 8 0 0 0;
#X connect 8 0 4 0;
#X connect 9 0 8 0;
#X connect 10 0 5 0;
#X connect 10 1 9 0;
#X connect 11 0 9 0;
#X connect 12 0 11 0;
#X connect 13 0 12 0;
#X connect 15 0 16 0;
#X connect 16 0 18 0;
#X connect 18 0 10 0;
#X connect 18 1 6 0;
